<svg xmlns="http://www.w3.org/2000/svg" viewBox="0 0 69.25 54.7"><defs><style>.cls-1{fill:#999;}.cls-2{fill:gray;}.cls-3{fill:#b3b3b3;}.cls-4{fill:#666;}</style></defs><title>Birddown</title><g id="Layer_2" data-name="Layer 2"><g id="Page_9" data-name="Page 9"><g id="bird_down_copy_8" data-name="bird down copy 8"><path class="cls-1" d="M1.76,3.82c.51-.3,1.28-.62,1.61-.13A6,6,0,0,1,4,5.15H4c-.05-.32-.11-.63-.16-.94C3.63,2.83,5.49,1,6.24.74c1.12-.47,1.76.79,2.15,2C8.63-1.41,11.73,0,12.63,1.59A50.19,50.19,0,0,1,15,7c-.06-1.35.28-2.34,1.38-2.37,1.68-.05,3,2.81,3.73,4.09,1.2,2.11,2,4.5,3.24,6.6,1.05,1.82,2.11,4.06,3.05,6.17,2,3.94,4.79,9.59,5.12,10,1.11,1.43.69,3.45-.16,5s-1.83,2.86-3.69,3.16c-3.45.57-6.81.31-10.38.32a5.86,5.86,0,0,1-2.17-.58,4.83,4.83,0,0,1-1.49-.87,9.48,9.48,0,0,1-1.75-1.69C11.74,36.57,2.7,25,1,15.66A9.71,9.71,0,0,1,.79,14C.28,11.41-.43,8.78.34,5.94A3.75,3.75,0,0,1,1.76,3.82Z"/><path class="cls-2" d="M22.69,25.32a.14.14,0,0,0,.14,0,.15.15,0,0,0,.08-.2,12,12,0,0,0-.59-1.06c-.1-.15-.19-.3-.28-.46a11,11,0,0,1-.55-1.2c-.11-.28-.22-.56-.35-.83-.42-.9-1-2.1-1.48-3.33-.26-.64-.5-1.3-.74-1.94s-.5-1.33-.77-2c-.36-.89-.6-1.45-.84-2l-.37-.86c0-.08-.11-.24-.2-.46A19.78,19.78,0,0,1,15.22,7.2.13.13,0,0,0,15.14,7a.14.14,0,0,0-.19.07c-.1.22.12.95,1.52,4.06.09.21.16.37.2.45l.37.86c.24.54.48,1.09.84,2,.27.66.52,1.34.77,2s.48,1.3.74,1.94c.5,1.24,1.06,2.44,1.49,3.35.12.26.23.54.34.81a9.27,9.27,0,0,0,.57,1.24l.28.47a8.66,8.66,0,0,1,.57,1Z"/><path class="cls-2" d="M17.91,26.88a.14.14,0,0,0,.21-.18c-.24-.49-.72-1.29-1.23-2.13a27.85,27.85,0,0,1-1.72-3.1A18.42,18.42,0,0,0,13.92,19c-.34-.6-.69-1.24-1-1.84l-.33-.6a14.91,14.91,0,0,1-.84-1.64,38.36,38.36,0,0,1-1.46-4.73c-.17-.63-.33-1.25-.51-1.88a23.53,23.53,0,0,1-.52-2.63L9.1,4.69c0-.11-.09-.33-.17-.6a7,7,0,0,1-.36-1.4.15.15,0,0,0-.15-.14.14.14,0,0,0-.14.14,6.92,6.92,0,0,0,.37,1.48,4.17,4.17,0,0,1,.16.57L9,5.67a22.93,22.93,0,0,0,.53,2.67c.18.62.34,1.24.5,1.86A39.06,39.06,0,0,0,11.47,15a14.69,14.69,0,0,0,.85,1.68l.33.59c.33.6.68,1.25,1,1.85a18.19,18.19,0,0,1,1.22,2.47,25.92,25.92,0,0,0,1.75,3.15c.51.84,1,1.63,1.22,2.11C17.87,26.85,17.89,26.86,17.91,26.88Z"/><path class="cls-2" d="M13,28.52a.14.14,0,0,0,.15,0,.14.14,0,0,0,.06-.2,22.85,22.85,0,0,1-1.51-3l-.27-.75c-.23-.62-.47-1.27-.76-1.88l-.15-.29c-.16-.32-.32-.66-.46-1a10,10,0,0,0-.59-1.13c-.16-.28-.33-.56-.47-.85A64.57,64.57,0,0,1,5.67,11C5.36,10,5.1,9,4.86,8S4.39,6.05,4.1,5.1A.17.17,0,0,0,3.91,5a.14.14,0,0,0-.09.18c.28.93.52,1.91.75,2.86s.5,2.06.82,3.08a65,65,0,0,0,3.37,8.39c.15.31.32.6.48.88a8.74,8.74,0,0,1,.58,1.09c.14.35.31.69.47,1l.14.28a18.53,18.53,0,0,1,.75,1.86c.09.25.19.5.28.74A22.14,22.14,0,0,0,13,28.47S13,28.51,13,28.52Z"/><path class="cls-3" d="M48.22,35.62c-.6-2.42-2.66-4.5-3.84-6.56a19,19,0,0,0-4-4.91c-1.2-1-5.06-2.1-6.49-2.78-1-.46-2.13-.55-2.87-1.24-1-.95-2.08-1.65-3-2.6-.7-.7-1.17-1.39-1.94-2.06a16,16,0,0,0-2.26-2.09,18.29,18.29,0,0,0-3.45-1.33,8.33,8.33,0,0,0-3-.63,12.35,12.35,0,0,0-5.85,2c-2,1.22-2.88,2.08-3,4.24a.59.59,0,0,0,.6.62,8.26,8.26,0,0,1,2.37.33c1.12.27,3.41.69,4.66.24,1.09-.39,1.71-1.46,3-1.51.65,0,1.13.39,1.75.49a15.87,15.87,0,0,0,2.18,0c1.21,0,3.39-.39,4.1.7-1.27.23-2.21-.33-3.5.15a13.35,13.35,0,0,0-2.54,1.39c-1.25.8-4.08.63-5.27,2.38-.2.3-.52.71-.7.39-.63-1.09-3-1.87-4.06-2.11-.61-.13-.79,1.65-.86,1.8-.15.34-.07.81-.24,1.17a3.09,3.09,0,0,0-.09,2.58,13.73,13.73,0,0,1,.94,2.93,28,28,0,0,1-.49,5.38c-.22,2.17.37,3.84.85,5.87a18.36,18.36,0,0,0,3.15,6.18,17.33,17.33,0,0,0,4.69,4.14,24,24,0,0,1,2,1.69,9.55,9.55,0,0,0,2.27,1c1.92.79,3.57,1.53,5.72,1.19,12.3-1.95,17.77-8,19.8-9.83C53.21,40.7,48.45,36.54,48.22,35.62Z"/><path class="cls-2" d="M3.61,19.93A43.94,43.94,0,0,1,8.1,18.4c1.36-.4,3.31.22,4.94.5a8.24,8.24,0,0,0,2.28.11,4.4,4.4,0,0,0,2.34-1.09c1.64-1.17,2.11-.31,3.36-.08,1.51.29,5.09-.81,6.17.71-.69.41-1.89.11-2.74.19a6.59,6.59,0,0,0-2.57.9,8.77,8.77,0,0,1-2,1c-1,.35-1.7.37-2.66.78A3.36,3.36,0,0,0,16,22.3c-.22.29-.23.86-.78.64-.15-.06-.39-.47-.54-.6s-.7-.36-.94-.54a4.87,4.87,0,0,0-1.64-.68c-.32-.09-.91-.53-1.17-.2s-.11.77-.34,1.1a2.68,2.68,0,0,0-.49,1.3c-.07.35-.34,3.12-.5,1.55,0-.2-.56-1.73-.65-2a5,5,0,0,0-.56-1.32,2.45,2.45,0,0,0-1.7-.74c-.73-.08-1.29-.28-2-.39-.32-.05-.64-.07-1-.1A2.23,2.23,0,0,1,3.61,19.93Z"/><path class="cls-4" d="M18.77,18.79a.57.57,0,1,1,1,.58c-.33.58-1.45,0-1-.58"/><path class="cls-1" d="M69,21.87c-.25-.53-.69-1.23-1.24-1a6.28,6.28,0,0,0-1.38.82h0l.66-.68c1-1,.5-3.53.06-4.21-.66-1-1.9-.37-2.9.39,2.17-3.53-1.17-4.16-2.83-3.36a52.76,52.76,0,0,0-5.06,3c.82-1.07,1.11-2.07.23-2.72-1.35-1-4.08.58-5.41,1.21-2.19,1-4.24,2.53-6.43,3.56a68.75,68.75,0,0,0-6,3.3c-3.87,2.1-9.42,5.12-9.92,5.28-1.74.53-2.55,2.43-2.73,4.17s-.14,3.39,1.21,4.71c2.5,2.44,5.41,4.15,8.32,6.2a5.92,5.92,0,0,0,2.12.78,5,5,0,0,0,1.71.13,9.74,9.74,0,0,0,2.41-.38C42.1,43,56.14,38.69,62.91,32A9,9,0,0,0,64,30.81c1.93-1.86,4-3.61,5-6.38A3.76,3.76,0,0,0,69,21.87Z"/><path class="cls-2" d="M39.57,27.51a.17.17,0,0,1-.13-.07.15.15,0,0,1,.05-.2,10.07,10.07,0,0,1,1.1-.53l.49-.22a9.32,9.32,0,0,0,1.13-.67c.25-.17.51-.33.76-.48.87-.49,2-1.16,3.13-1.88l1.71-1.16c.58-.4,1.18-.81,1.77-1.2.81-.52,1.33-.84,1.83-1.15l.8-.49.43-.26a19.09,19.09,0,0,0,3.43-2.27.16.16,0,0,1,.18-.11.15.15,0,0,1,.11.18c0,.23-.64.7-3.56,2.45l-.43.25-.8.5c-.5.3-1,.62-1.82,1.14-.6.39-1.19.8-1.77,1.19s-1.14.79-1.72,1.17c-1.12.73-2.27,1.39-3.14,1.89-.25.14-.5.31-.74.47a11.56,11.56,0,0,1-1.17.69l-.5.22a8,8,0,0,0-1.06.52Z"/><path class="cls-2" d="M42.6,31.53a.13.13,0,0,1-.13-.08.14.14,0,0,1,.05-.19c.48-.27,1.33-.65,2.24-1.05a25.78,25.78,0,0,0,3.18-1.55,18,18,0,0,1,2.46-1.34c.63-.3,1.28-.63,1.89-.94l.61-.29a15.74,15.74,0,0,0,1.63-.87,39.88,39.88,0,0,0,3.91-3l1.49-1.25a22.41,22.41,0,0,0,1.93-1.86l.66-.68L63,18a8.1,8.1,0,0,0,1.1-.95.14.14,0,0,1,.2,0,.15.15,0,0,1,0,.2,8.15,8.15,0,0,1-1.15,1c-.21.16-.39.3-.46.37l-.66.68a23,23,0,0,1-2,1.88l-1.48,1.24a39,39,0,0,1-3.94,3.07,15.56,15.56,0,0,1-1.67.88l-.6.3c-.61.31-1.27.64-1.89.93a17.89,17.89,0,0,0-2.43,1.33,27.26,27.26,0,0,1-3.23,1.58c-.9.39-1.74.77-2.21,1Z"/><path class="cls-2" d="M45.66,35.67a.15.15,0,0,1-.07-.28,23.24,23.24,0,0,0,3-1.63l.65-.45c.55-.38,1.11-.78,1.7-1.11l.28-.15c.32-.18.65-.36,1-.55a10.12,10.12,0,0,1,1.13-.59c.29-.13.59-.27.87-.43a62.35,62.35,0,0,0,7.54-4.93c.84-.64,1.65-1.35,2.42-2s1.49-1.31,2.27-1.92a.15.15,0,1,1,.19.23c-.77.6-1.53,1.26-2.26,1.9s-1.59,1.41-2.43,2.06a65.09,65.09,0,0,1-7.58,4.95c-.29.16-.6.3-.89.44a9.56,9.56,0,0,0-1.1.57c-.32.2-.65.38-1,.56l-.28.15a18.55,18.55,0,0,0-1.68,1.09l-.65.46a22.68,22.68,0,0,1-3,1.65Z"/></g></g></g></svg>