<svg xmlns="http://www.w3.org/2000/svg" viewBox="0 0 66.07 57.06"><defs><style>.cls-1{fill:#999;}.cls-2{fill:gray;}.cls-3{fill:#b3b3b3;}.cls-4{fill:#666;}.cls-5{fill:#ddb3c6;}</style></defs><title>Birdup</title><g id="Layer_2" data-name="Layer 2"><g id="Page_11" data-name="Page 11"><g id="bird_up_copy_10" data-name="bird up copy 10"><path class="cls-1" d="M63.25,2.34c-.55-.21-1.37-.39-1.61.15A6.08,6.08,0,0,0,61.25,4h0c0-.32,0-.64,0-.95,0-1.41-2.14-2.86-2.93-3-1.19-.27-1.6,1.08-1.77,2.32-1-4-3.77-2.12-4.38-.38a50.63,50.63,0,0,0-1.45,5.72C50.54,6.39,50,5.47,49,5.63c-1.67.24-2.48,3.29-3,4.67-.82,2.29-1.22,4.78-2,7.06-.72,2-1.39,4.36-2,6.6-1.26,4.22-3.07,10.27-3.32,10.74-.85,1.6-.08,3.52,1,4.88s2.29,2.5,4.19,2.48c3.49,0,6.76-.86,10.27-1.46a6.07,6.07,0,0,0,2-1,4.66,4.66,0,0,0,1.31-1.11,9.48,9.48,0,0,0,1.44-2C59,36.32,66,23.36,66.07,13.87A9.29,9.29,0,0,0,66,12.24c.05-2.68.3-5.39-.94-8A3.75,3.75,0,0,0,63.25,2.34Z"/><path class="cls-2" d="M46.32,27.11a.14.14,0,0,1-.14,0,.14.14,0,0,1-.1-.17,7.77,7.77,0,0,1,.4-1.15l.19-.51A8.76,8.76,0,0,0,47,24.05c.06-.29.13-.59.21-.88.26-1,.6-2.23.88-3.53.15-.68.28-1.37.4-2s.26-1.4.41-2.09c.21-.95.35-1.54.49-2.11.08-.29.15-.58.22-.91,0-.09.07-.26.13-.48a19.3,19.3,0,0,0,.83-4,.13.13,0,0,1,0-.19.15.15,0,0,1,.21,0c.13.19,0,.95-.8,4.25l-.12.48-.22.91c-.14.57-.29,1.16-.49,2.1-.15.69-.28,1.4-.41,2.09s-.26,1.36-.4,2c-.28,1.31-.62,2.59-.89,3.55-.08.28-.14.58-.2.86A9.83,9.83,0,0,1,47,25.42c-.07.17-.14.34-.2.51A9.15,9.15,0,0,0,46.36,27,.16.16,0,0,1,46.32,27.11Z"/><path class="cls-2" d="M51.3,27.83a.18.18,0,0,1-.14,0,.14.14,0,0,1-.1-.18c.15-.53.49-1.4.85-2.32A26.73,26.73,0,0,0,53.07,22a18.91,18.91,0,0,1,.8-2.68c.23-.65.46-1.35.68-2,.07-.22.15-.43.22-.65a14.44,14.44,0,0,0,.55-1.77A39.74,39.74,0,0,0,56,10c0-.64.1-1.28.17-1.93a21.58,21.58,0,0,0,.06-2.68c0-.32,0-.64,0-1a5.73,5.73,0,0,1,.07-.62,8,8,0,0,0,.11-1.45.14.14,0,0,1,.12-.16.14.14,0,0,1,.17.12,7.17,7.17,0,0,1-.11,1.52,5.59,5.59,0,0,0-.07.58c0,.31,0,.63,0,1a22.11,22.11,0,0,1-.06,2.71c-.06.65-.12,1.29-.17,1.93a38.78,38.78,0,0,1-.64,5,14.35,14.35,0,0,1-.55,1.8c-.08.22-.15.43-.22.64-.22.65-.46,1.35-.69,2a17.31,17.31,0,0,0-.78,2.64,27.68,27.68,0,0,1-1.18,3.4c-.36.92-.69,1.78-.84,2.29A.16.16,0,0,1,51.3,27.83Z"/><path class="cls-2" d="M56.39,28.61a.16.16,0,0,1-.15,0,.13.13,0,0,1-.09-.18,22.35,22.35,0,0,0,1-3.26c0-.26.1-.52.14-.78.12-.66.25-1.34.43-2l.09-.31c.1-.35.21-.71.29-1.07a8.53,8.53,0,0,1,.39-1.21c.11-.3.23-.61.31-.92a62.47,62.47,0,0,0,1.88-8.81c.14-1,.21-2.12.28-3.16s.13-2,.25-3a.15.15,0,0,1,.16-.13.15.15,0,0,1,.13.16c-.12,1-.19,2-.25,2.94s-.14,2.12-.28,3.18A63.06,63.06,0,0,1,59,19a9.63,9.63,0,0,1-.32.95,8,8,0,0,0-.37,1.17q-.14.55-.3,1.08l-.09.31c-.18.63-.3,1.3-.42,1.95,0,.27-.09.53-.14.79a22.7,22.7,0,0,1-1,3.3S56.4,28.59,56.39,28.61Z"/><path class="cls-3" d="M22.94,41.64c.18-2.49,1.84-4.89,2.65-7.12A19,19,0,0,1,28.65,29c1-1.24,4.63-2.94,5.92-3.85.87-.62,2-.91,2.62-1.72.85-1.11,1.76-2,2.53-3.08.58-.81.92-1.57,1.56-2.36a16.13,16.13,0,0,1,1.87-2.44,18.29,18.29,0,0,1,3.17-1.91,8.38,8.38,0,0,1,2.85-1.13,12.3,12.3,0,0,1,6.11,1c2.23.85,3.19,1.56,3.69,3.66a.59.59,0,0,1-.48.71,8.3,8.3,0,0,0-2.28.74c-1.06.45-3.25,1.27-4.56,1-1.13-.2-1.93-1.15-3.2-1-.65.09-1.05.58-1.63.78a15.47,15.47,0,0,1-2.16.37c-1.18.21-3.4.19-3.92,1.39,1.3,0,2.13-.7,3.48-.46a14,14,0,0,1,2.73.94c1.38.58,4.13-.08,5.61,1.45.25.26.63.6.76.26.42-1.19,2.6-2.36,3.64-2.78.58-.23,1.06,1.49,1.15,1.63.21.31.2.79.43,1.11a3.08,3.08,0,0,1,.54,2.52,13,13,0,0,0-.42,3.05,26.71,26.71,0,0,0,1.4,5.22c.59,2.1.29,3.85.17,5.93a18.13,18.13,0,0,1-2,6.62,17.19,17.19,0,0,1-3.9,4.89,22.65,22.65,0,0,0-1.64,2,9.69,9.69,0,0,1-2.08,1.34C48.81,56,47.3,57,45.13,57.06c-12.45.19-18.87-4.79-21.19-6.29C18.89,47.5,22.87,42.58,22.94,41.64Z"/><path class="cls-2" d="M64.2,18.53a46.4,46.4,0,0,0-4.7-.74c-1.4-.16-3.21.79-4.77,1.34a8.31,8.31,0,0,1-2.23.5A4.36,4.36,0,0,1,50,19c-1.82-.87-2.13.05-3.33.5-1.43.54-5.15.07-6,1.75.75.29,1.89-.21,2.74-.28a6.52,6.52,0,0,1,2.69.45,9,9,0,0,0,2.17.65c1,.18,1.74.08,2.75.31a3.55,3.55,0,0,1,1.32.65c.26.25.37.8.87.5.14-.09.31-.53.43-.68s.63-.49.83-.7a5.1,5.1,0,0,1,1.5-.95c.3-.15.81-.68,1.13-.4s.23.74.52,1a2.6,2.6,0,0,1,.7,1.19c.13.34.87,3,.76,1.45,0-.21.25-1.8.3-2a4.94,4.94,0,0,1,.33-1.4,2.43,2.43,0,0,1,1.55-1c.7-.21,1.22-.5,1.92-.74.31-.1.62-.17.92-.26A1.63,1.63,0,0,0,64.2,18.53Z"/><path class="cls-4" d="M49.06,20a.57.57,0,1,0-.87.75c.42.51,1.43-.21.87-.75"/><path class="cls-1" d="M.07,31.67c.15-.57.47-1.34,1.05-1.23A6.05,6.05,0,0,1,2.61,31h0l-.77-.55c-1.15-.82-1.1-3.39-.78-4.14.47-1.12,1.81-.69,2.92-.11-2.74-3.11.44-4.3,2.22-3.8a52,52,0,0,1,5.5,2.12c-1-.91-1.45-1.84-.69-2.64,1.16-1.23,4.11-.13,5.53.27,2.34.65,4.61,1.76,7,2.4A66.9,66.9,0,0,1,30,26.79c4.18,1.4,10.16,3.42,10.69,3.49,1.79.23,2.92,2,3.4,3.65s.72,3.31-.39,4.84c-2,2.83-4.62,5-7.13,7.54a6,6,0,0,1-1.95,1.13,5,5,0,0,1-1.67.42,9.26,9.26,0,0,1-2.43,0c-.3,0-14.87-1.88-22.68-7.27a9,9,0,0,1-1.26-1C4.37,38.1,2,36.74.55,34.18A3.73,3.73,0,0,1,.07,31.67Z"/><path class="cls-2" d="M30.07,32.16a.14.14,0,0,0,.11-.09.14.14,0,0,0-.08-.18,9,9,0,0,0-1.17-.34l-.52-.13A9,9,0,0,1,27.17,31c-.27-.12-.55-.24-.83-.34-.94-.34-2.17-.79-3.4-1.32-.63-.27-1.27-.56-1.89-.85s-1.29-.59-1.95-.87c-.88-.38-1.45-.6-2-.82l-.87-.35-.46-.18A20.52,20.52,0,0,1,12,24.58a.13.13,0,0,0-.18-.08.14.14,0,0,0-.09.19c.08.22.76.58,3.94,1.8l.45.18L17,27c.54.21,1.11.44,2,.81.65.28,1.31.58,1.94.87l1.9.86c1.23.52,2.47,1,3.42,1.32.27.1.54.22.81.33a8.2,8.2,0,0,0,1.28.48l.52.14a7.13,7.13,0,0,1,1.14.33A.11.11,0,0,0,30.07,32.16Z"/><path class="cls-2" d="M27.78,36.64a.14.14,0,0,0,0-.28c-.52-.18-1.42-.4-2.38-.64a26.71,26.71,0,0,1-3.4-1,19.31,19.31,0,0,0-2.66-.9c-.66-.18-1.37-.4-2-.59l-.65-.19a15.1,15.1,0,0,1-1.76-.58,38.59,38.59,0,0,1-4.37-2.32c-.55-.33-1.11-.66-1.68-1a20.72,20.72,0,0,1-2.22-1.51l-.77-.55a6,6,0,0,0-.55-.31,7.36,7.36,0,0,1-1.24-.74.15.15,0,0,0-.21.21,7.76,7.76,0,0,0,1.31.79,4.41,4.41,0,0,1,.51.28l.77.56a24.68,24.68,0,0,0,2.25,1.52c.57.31,1.12.64,1.68,1a40.84,40.84,0,0,0,4.4,2.34,15.62,15.62,0,0,0,1.79.59l.65.18,2,.6a17,17,0,0,1,2.61.89,27,27,0,0,0,3.46,1c.95.23,1.85.46,2.35.63A.11.11,0,0,0,27.78,36.64Z"/><path class="cls-2" d="M25.47,41.24a.14.14,0,0,0,.12-.1.14.14,0,0,0-.1-.18,20.33,20.33,0,0,1-3.21-1.1l-.73-.33a19.22,19.22,0,0,0-1.86-.79l-.31-.11c-.34-.12-.69-.24-1-.38a10.74,10.74,0,0,0-1.22-.38c-.3-.08-.62-.17-.93-.28A61.84,61.84,0,0,1,7.93,34C7,33.54,6.08,33,5.19,32.44s-1.69-1-2.56-1.51a.16.16,0,0,0-.2.06.14.14,0,0,0,.06.2c.86.46,1.71,1,2.54,1.49s1.81,1.11,2.76,1.61a61.89,61.89,0,0,0,8.31,3.57c.31.12.64.2.95.29a8.07,8.07,0,0,1,1.18.37c.35.14.71.26,1.05.38l.31.11a17.33,17.33,0,0,1,1.83.78l.73.34a22.58,22.58,0,0,0,3.26,1.11Z"/><path class="cls-5" d="M63.5,19.47c-.71-2.63-1.43-3.38-1.45-2.19s.31,1,.5,1.74a7.75,7.75,0,0,1,.24,2.23,25.29,25.29,0,0,0,.33,5.22c.42,1.62,1.17.87,1,.5a7.35,7.35,0,0,1-.33-1.92C63.57,23.27,63.93,21.06,63.5,19.47Z"/></g></g></g></svg>