<svg xmlns="http://www.w3.org/2000/svg" viewBox="0 0 203.46 233.06"><defs><style>.cls-1{fill:#999;}.cls-2{fill:#b3b3b3;}.cls-3{fill:gray;}.cls-4{fill:#666;}.cls-5{fill:#ddb3c6;}</style></defs><title>Birdgrass</title><g id="Layer_2" data-name="Layer 2"><g id="zoom_" data-name="zoom?"><g id="bird_grass_copy_9" data-name="bird grass copy 9"><path class="cls-1" d="M131.53,195.32a.46.46,0,0,0-.2.35c-.46,5.15.29,10.34-.1,15.51-.2,2.69-.24,5.38-.5,8.07-.12,1.2-1.56,2.84-2.25,3.89s-1.47,2-2.17,3a20.05,20.05,0,0,0-2.12,3.85.46.46,0,0,0,.33.63,8,8,0,0,1,1.55.51.46.46,0,0,0,.62-.26c.53-1.48,2.13-3.18,3.33-4.56a.47.47,0,0,1,.82.36,23.15,23.15,0,0,0-.24,6,.47.47,0,0,0,.53.39,5.26,5.26,0,0,1,1.69-.2.49.49,0,0,0,.53-.4,51.34,51.34,0,0,0,.2-5.67.47.47,0,0,1,.84-.27,57.8,57.8,0,0,1,4.09,5.49.44.44,0,0,0,.49.23,11.83,11.83,0,0,0,2.09-.73.46.46,0,0,0,.11-.71,14.62,14.62,0,0,1-1.9-2.54c-.6-1-1.09-2-1.72-3-1-1.66-1.45-3.5-2.39-5.13a2.17,2.17,0,0,1-.28-1.32c.26-3.42.06-6.88,0-10.34s-.6-7.36-.48-11.06c0-.72.51-1.79-.21-2.21A2.57,2.57,0,0,0,131.53,195.32Z"/><path class="cls-1" d="M155.82,187.8a.48.48,0,0,0-.17.37c0,5.17,1.88,17.06,2,22.24.05,2.69.26,5.38.25,8.08,0,1.2-1.28,3-1.87,4.07s-1.29,2.12-1.89,3.17a20.5,20.5,0,0,0-1.75,4,.45.45,0,0,0,.38.59,8.47,8.47,0,0,1,1.6.37.46.46,0,0,0,.59-.32c.39-1.52,1.83-3.36,2.89-4.85a.47.47,0,0,1,.85.29,23.51,23.51,0,0,0,.32,6,.47.47,0,0,0,.56.33,5.71,5.71,0,0,1,1.67-.36.48.48,0,0,0,.49-.45,50.59,50.59,0,0,0-.32-5.66.46.46,0,0,1,.8-.34,58.16,58.16,0,0,1,4.59,5.08.43.43,0,0,0,.51.18,13.17,13.17,0,0,0,2-.91.47.47,0,0,0,0-.73,14.83,14.83,0,0,1-2.13-2.35c-.69-1-1.27-1.88-2-2.87-1.13-1.56-1.77-3.35-2.86-4.89a2.26,2.26,0,0,1-.4-1.29c-.06-3.42-.58-6.86-.94-10.29-.38-3.59-1.92-14-2.14-17.75,0-.72.33-1.84-.42-2.19A2.58,2.58,0,0,0,155.82,187.8Z"/><path class="cls-2" d="M189.68,146.12c-1.29-3.41-4-5.29-4.82-8.31-1.11-4.19,1.88-9.58,1.24-13.91-1.7-11.47-10.3-22-14.78-32A83.6,83.6,0,0,0,155.8,68.13c-5.22-5.5-9.76-11-16.18-14.86-4.23-2.54-9.53-3.47-12.65-7-4.3-4.83-8.79-8.49-12.74-13.3-2.92-3.56-4.77-6.94-8-10.33S100.8,15,96.77,12.06C92.26,8.78,86.26,6.47,81.53,4.38S73.57.69,68,.14c-9.11-.9-19.56,2.76-27.8,6.62-10.91,5.12-14.88,9-16.1,21.09,5.87.2,7.63.73,13.59,2.76,5,1.71,15.38,4.69,21.33,3.18,5.17-1.31,8.5-6,14.39-5.62,3,.18,5,2.32,7.82,3,3.1.8,6.84.64,10,.95,5.54.54,15.74-.31,18.53,5.06-6,.45-10-2.5-16.16-.91-4.26,1.1-8.34,3.28-12.27,5.28-6.14,3.11-19,1.06-25.28,8.58-1.08,1.3-2.72,3-3.41,1.48C50.33,46.34,39.91,41.7,35,40.13c-2.75-.87-4.37,7.2-4.75,7.87-.84,1.51-.66,3.7-1.61,5.28C26.25,57.23,26,60.35,27,65.06s3.06,8.9,3,13.89C30,87.65,27,95.47,25.39,103.46c-2,9.9,0,17.83,1.29,27.37,1.31,9.69,6.66,21.76,11.72,29.8a78.65,78.65,0,0,0,19.69,21.11c3.31,2.45,5.19,5.9,8.24,8.66s6.79,3.74,10,5.45c8.44,4.45,15.7,7.69,25.73,8,7.53.23,15.6,1.61,21.89-3.16.92-.69,1.63-2.84,6.69-3.91,8-1.69,10.41,1.86,16.13-2.36,3.21-2.37,2.43-2.15,5.27-4.49,3.52-2.89,11.33.15,11.31.83,9.61,2.54,27.51-17.59,35.33-24.35a.46.46,0,0,0,.1-.6C197.63,163.66,192.1,152.58,189.68,146.12Z"/><path class="cls-3" d="M.92,33.1a209.66,209.66,0,0,1,21.36-5c6.39-1.24,15.08,2.51,22.45,4.51a38.59,38.59,0,0,0,10.41,1.54c4.7.1,7.88-2,11.26-4,8.06-4.65,9.83-.49,15.47,1.15,6.81,2,23.74-1.45,28.05,6-3.34,1.58-8.74-.32-12.69-.34a30.45,30.45,0,0,0-12.21,3,39.05,39.05,0,0,1-9.79,3.76c-4.56,1.19-8,1-12.56,2.4a15.56,15.56,0,0,0-5.83,3.45c-1.13,1.22-1.44,3.82-3.84,2.57-.67-.35-1.61-2.31-2.22-3-.91-1-3.07-2-4.07-2.91-2.2-2-4.48-2.71-7.23-3.85-1.44-.59-4-2.87-5.32-1.47-1,1.08-.82,3.51-2,4.91-1.82,2.08-2,3-2.81,5.76-.49,1.59-3,14.17-3,6.92,0-1-1.79-8.2-2.11-9.31-.55-1.93-.84-4.69-2-6.32-1.86-2.63-4.64-3.58-7.48-4.17C11.42,38,8.91,36.83,5.61,36c-1.43-.36-2.91-.59-4.34-.91A9.21,9.21,0,0,1,.92,33.1Z"/><path class="cls-4" d="M71.12,34.62a2.65,2.65,0,1,1,4.28,3.11c-1.76,2.51-6.67-.46-4.28-3.11"/><path class="cls-1" d="M130.43,49.56C119.25,52.08,112.91,64.42,110.65,76c-2.46,12.61.6,23.08,8.21,32.82,14,18,31.81,36,51.64,47.19,4.34,2.44,28.5,14.08,32.73,7.46,1-1.62-1.69-6-3.41-6.81-5.17-2.56-4.55-9.3-7.59-14-2.37-3.63-4.08-3.72-4.48-8.39-.32-3.73,1.11-7.52.48-11.1-1.62-9.11-8.56-19.4-12.69-27.7-5.8-11.64-13.77-22-22.32-31.9C149.74,59.61,135.3,48.46,130.43,49.56Z"/><path class="cls-3" d="M184.31,134.69a7.21,7.21,0,0,0,3-.39.65.65,0,0,0,.42-.8.64.64,0,0,0-.8-.41,6.77,6.77,0,0,1-4.2,0l-.85-.17c-3.4-.64-5.38-2.72-7.79-5.59-2.88-3.43-5.86-6.88-8.75-10.22-3.83-4.43-7.79-9-11.56-13.6a27,27,0,0,1-2.13-3.17c-.43-.7-.85-1.4-1.31-2.06a8.39,8.39,0,0,1-.82-2.14A6,6,0,0,0,147.91,93a.64.64,0,0,0-.89.11.63.63,0,0,0,.11.89,5.35,5.35,0,0,1,1.19,2.58,8.88,8.88,0,0,0,1,2.5c.45.65.86,1.33,1.27,2a27.2,27.2,0,0,0,2.24,3.32c3.77,4.59,7.74,9.18,11.58,13.62,2.88,3.34,5.86,6.79,8.74,10.2,2.5,3,4.71,5.32,8.52,6l.85.17C183.2,134.52,183.77,134.63,184.31,134.69Z"/><path class="cls-3" d="M189.63,148.74a5.62,5.62,0,0,0,4.27-1.17.63.63,0,0,0,.09-.89.65.65,0,0,0-.9-.09,5,5,0,0,1-4.62.65,15.46,15.46,0,0,1-6.41-2.89c-1.09-.86-2.19-1.71-3.29-2.55a96,96,0,0,1-9.16-7.69c-3.42-3.4-7.21-6.48-10.87-9.46a129.2,129.2,0,0,1-12-10.61,19.22,19.22,0,0,1-3.13-4.26,12.13,12.13,0,0,0-2.94-3.65c-.28-.28-.6-.58-.94-.93a.64.64,0,0,0-.9,0,.63.63,0,0,0,0,.9c.35.35.67.65,1,.93a11.21,11.21,0,0,1,2.69,3.31,20.68,20.68,0,0,0,3.34,4.57,128.48,128.48,0,0,0,12.11,10.71c3.64,3,7.4,6,10.78,9.38A96.44,96.44,0,0,0,178,142.8q1.63,1.26,3.27,2.55a16.55,16.55,0,0,0,6.89,3.12A10.43,10.43,0,0,0,189.63,148.74Z"/><path class="cls-3" d="M191,157.28a17.13,17.13,0,0,0,6.65-.72.64.64,0,0,0,.42-.79.63.63,0,0,0-.79-.43c-7,2.09-11.56-.46-19.1-4.67L177,150a23,23,0,0,1-4.5-3.88,25.75,25.75,0,0,0-4.14-3.68c-.81-.53-1.62-1.13-2.4-1.71s-1.86-1.39-2.86-2-2.22-1.24-3.31-1.8a25,25,0,0,1-5.1-3.09c-.65-.54-1.31-1.07-2-1.6a50.31,50.31,0,0,1-4.09-3.54c-.82-.82-1.67-1.64-2.53-2.46a91,91,0,0,1-6.36-6.58.63.63,0,1,0-1,.81,89.73,89.73,0,0,0,6.45,6.68l2.51,2.45a52.43,52.43,0,0,0,4.2,3.63l1.94,1.59a27.53,27.53,0,0,0,5.34,3.25c1.08.54,2.19,1.1,3.22,1.74s1.88,1.28,2.77,1.94,1.62,1.21,2.48,1.76a25.72,25.72,0,0,1,3.91,3.51,23.56,23.56,0,0,0,4.79,4.1l1.17.66C182.72,154.64,186.67,156.85,191,157.28Z"/><path class="cls-5" d="M6.31,37.52C3.21,26.1.07,22.84,0,28c-.06,4.62,1.37,4.46,2.19,7.57a33.48,33.48,0,0,1,1,9.71C3.21,52,3.12,62.08,4.65,68c1.82,7,5.08,3.78,4.52,2.17-1.24-3.52-1.06-5.8-1.44-8.39C6.62,54.05,8.19,44.44,6.31,37.52Z"/></g></g></g></svg>