<svg xmlns="http://www.w3.org/2000/svg" viewBox="0 0 173.5 84.44"><defs><style>.cls-1{fill:#fff;}.cls-2{fill:none;stroke:#ccc;stroke-miterlimit:10;stroke-width:0.25px;}</style></defs><title>eggsnew</title><g id="Layer_2" data-name="Layer 2"><g id="zoom_" data-name="zoom?"><g id="tree_and_grass_copy_2" data-name="tree and grass copy 2"><path class="cls-1" d="M30.48,81.89c4.15.41,8.34.8,12.51.93,3.73.12,7.65-.2,11.27.85C61,75.85,65.19,64.49,65.19,51.81,65.19,28.22,50.6,9.1,32.6,9.1S0,28.22,0,51.81A51.81,51.81,0,0,0,6.32,77,116.48,116.48,0,0,0,30.48,81.89Z"/><path class="cls-1" d="M89.75,84.42c8.35-.1,16.66-1,25-1.17a51.8,51.8,0,0,0,6.17-24.94c0-23.6-14.59-42.72-32.59-42.72s-32.6,19.12-32.6,42.72A51.56,51.56,0,0,0,62.4,84.13C71.52,84.17,80.63,84.54,89.75,84.42Z"/><path class="cls-1" d="M128.72,81.85c1.52,0,3-.08,4.56-.2,5.82-.94,11.57-2.22,17.39-3.11,1.62-.37,3.24-.75,4.85-1.18,1.89-.5,3.8-1,5.73-1.3,7.46-7.83,12.25-19.85,12.25-33.34C173.5,19.13,158.9,0,140.9,0s-32.6,19.13-32.6,42.72c0,17.57,8.11,32.65,19.68,39.21A6,6,0,0,1,128.72,81.85Z"/><path class="cls-2" d="M62.19,84.17a59.13,59.13,0,0,1-4-9.49c-1.77-6.24-3-12.28-2.72-18.9A53.44,53.44,0,0,1,57.77,42.7c.94-2.71,3.56-7.82,4.25-9.55"/><path class="cls-2" d="M114.57,83.51c.54-1.38,1.54-2.63,2.16-4a51.87,51.87,0,0,0,1.71-5,67.69,67.69,0,0,0,2.24-10.46,30.9,30.9,0,0,0,.19-9.31c-.5-3.12-.67-6.41-1.58-9.51-.49-1.67-.84-3.25-1.34-4.88s-1.57-3.3-2.16-5c-.41-1.15-5.18-7.76-5.33-8.44"/></g></g></g></svg>