<svg xmlns="http://www.w3.org/2000/svg" viewBox="0 0 65.1 39.17"><defs><style>.cls-1{fill:#bf6c47;}.cls-2{fill:#893f1a;}</style></defs><title>Nest</title><g id="Layer_2" data-name="Layer 2"><g id="Page_7" data-name="Page 7"><g id="tree_and_grass_copy_6" data-name="tree and grass copy 6"><path class="cls-1" d="M61.9,9A16.4,16.4,0,0,0,50.2,2.08C34.69.39,13.43-4.15,3.05,9.66.17,13.49-.59,17.3.43,20.65a14.46,14.46,0,0,0,.66,3.49c.4,1.18.78,2.41,1.24,3.56A13,13,0,0,0,6.18,32l.14.09a11.62,11.62,0,0,0,2,1c.63.31,1.21.72,1.84,1l.34.11h0a7.09,7.09,0,0,1,2.33,1A15,15,0,0,0,14.5,36l1.18.47a2.81,2.81,0,0,1,.39.19,7.53,7.53,0,0,1,1.28.33c.44.16.88.35,1.33.5,1,.35,2.1.53,3.14.79l.14,0,.35,0h0a6.44,6.44,0,0,1,1.06.15l.22,0h.06a9.66,9.66,0,0,1,2.67.27c.46,0,.92,0,1.38.05l1.66,0A2.53,2.53,0,0,1,30,39a11.1,11.1,0,0,1,2.07.15h.8A58,58,0,0,0,48.55,36.6l.37-.17.08,0,.63-.26.08,0,.09,0s1.49-.71,2.16-1l1.24-.46.27-.1,0,0,.62-.3c.9-.47,1.77-1,2.68-1.46a12.05,12.05,0,0,0,1.82-1.18c.71-.57,1.4-1.17,2.16-1.67a7,7,0,0,1,.56-.66c.4-.41.86-.77,1.29-1.15a10.08,10.08,0,0,0,1.16-1.28l.2-.21a48.47,48.47,0,0,0,.94-7.36C65.63,15.63,64,12,61.9,9Z"/><path class="cls-2" d="M58.42,9.29A15.42,15.42,0,0,0,48.05,4.35C34.31,3.14,15.47-.12,6.27,9.78.8,15.67,3.94,21.49,12.87,24.15c9.92,3,41.1,3.2,47.3-5.44C62.49,15.47,60.75,12,58.42,9.29Z"/><path class="cls-2" d="M64.87,19.89a.07.07,0,0,1,0-.05.65.65,0,0,0-.26-.17.64.64,0,0,0-.82.4c-1.6,4.61-7,6.19-11.75,7.59l-.89.26c-7.4,2.19-31.44,2.87-41.18-.34-3-1-7.76-4-8.35-6.86a.65.65,0,0,0-.77-.5.64.64,0,0,0-.44.34h0a6.25,6.25,0,0,0,.09,1C1.73,25.12,7.15,28,9.57,28.81c4.91,1.62,13.11,2.29,21.13,2.29,8.52,0,16.85-.76,20.83-1.94l.88-.26c4.67-1.36,10.43-3,12.43-7.93C64.86,20.61,64.88,20.25,64.87,19.89Z"/><path class="cls-2" d="M12.84,35.18A15,15,0,0,0,14.5,36l1.14.45a16,16,0,0,0-2-1.64,52.1,52.1,0,0,1-7.88-6.75c-.17-.17-.4-.42-.64-.69-.9-1-2-2.25-3-2.54a.64.64,0,0,0-.74.3.13.13,0,0,1,0,.06,1.57,1.57,0,0,0,.19.59l.08.26.09,0a9.17,9.17,0,0,1,2.41,2.17c.26.29.48.54.68.74a61.11,61.11,0,0,0,5.87,5.3A8.34,8.34,0,0,1,12.84,35.18Z"/><path class="cls-2" d="M39.37,33.3a.64.64,0,0,0-.8-.43A37,37,0,0,1,31.7,34c-1.2.11-2.45.22-3.65.4-4.47.65-10.32.45-15.48.28l-.83,0c.38.17.75.37,1.1.57a16.48,16.48,0,0,0,1.63.81c1.85.06,3.75.1,5.62.1a59.43,59.43,0,0,0,8.15-.46c1.16-.17,2.39-.28,3.58-.39a37.32,37.32,0,0,0,7.12-1.13A.64.64,0,0,0,39.37,33.3Z"/><path class="cls-2" d="M41.24,38.37A10.72,10.72,0,0,1,42.91,38l.91-.14L41,36.93c-2.08-.67-4.24-1.36-5.46-1.83s-2.87-1.18-4.69-2c-5.55-2.39-9.27-3.95-10.48-3.79a.65.65,0,0,0-.55.73.64.64,0,0,0,.72.55c.94-.13,6.49,2.27,9.8,3.69,1.83.79,3.55,1.53,4.74,2s3.42,1.18,5.53,1.85Z"/><path class="cls-2" d="M52,35.12l1.24-.46.27-.1,0,0,.14-.07c-2.92-.49-6.13-1.24-9.28-2C39,31.24,33.54,30,29.56,29.92h0a.65.65,0,0,0,0,1.29c3.84,0,9.26,1.31,14.51,2.54,2.43.57,4.88,1.14,7.23,1.61Z"/><path class="cls-2" d="M55.23,27.35a.63.63,0,0,0-.89-.18c-1.26.84-2.57,1.74-4,2.7-2.88,2-5.87,4.08-8.63,5.66a70.14,70.14,0,0,1-7,3.58c.89-.06,1.78-.14,2.66-.24a1.47,1.47,0,0,1,.69.1c1.51-.75,3-1.53,4.33-2.32,2.81-1.61,5.82-3.7,8.73-5.72,1.38-.95,2.67-1.85,3.92-2.68A.65.65,0,0,0,55.23,27.35Z"/><path class="cls-2" d="M63,22.71c-.3-.2-1.22.91-1.42,1.21a87.07,87.07,0,0,1-5.48,7.32,22.61,22.61,0,0,1-5.73,4.36l-1.16.66h.11l.31-.13.08,0,.09,0s1.49-.71,2.16-1l1.24-.46.27-.1,0,0,.62-.3c.61-.32,1.2-.65,1.8-1,.41-.38.79-.76,1.14-1.15,1.54-1.71,5-6.81,6.12-8.51A.63.63,0,0,0,63,22.71Z"/><path class="cls-2" d="M29.4,38.93a3.89,3.89,0,0,1,.47.09,12.89,12.89,0,0,1,1.76.07,26.67,26.67,0,0,0-2.88-1.29c-.93-.37-2-.79-3.47-1.53-4.65-2.33-7.54-3.94-8.57-4.8-1.34-1.11-3.11-2.56-3.91-3.14a.64.64,0,1,0-.76,1c.61.45,1.94,1.52,3.84,3.1,1.68,1.39,7,4.07,8.82,5,1.37.69,2.39,1.1,3.28,1.46Z"/><path class="cls-2" d="M46.68,29.08a.65.65,0,0,0-.89-.21c-1.29.79-3.65,2.08-5.74,3.21-1.38.76-2.69,1.47-3.57,2a35,35,0,0,1-8.29,3.35c-1.38.36-3.17.74-5.08,1.08.1,0,.2,0,.3.05l.22,0h.06a9.66,9.66,0,0,1,2.67.27c.41,0,.83,0,1.25.05l.91-.23a36.57,36.57,0,0,0,8.6-3.47c.87-.5,2.18-1.21,3.55-2,2.1-1.14,4.47-2.44,5.79-3.25A.64.64,0,0,0,46.68,29.08Z"/><path class="cls-2" d="M62.63,28.12a8,8,0,0,0,.93-1l-1,.31a24.51,24.51,0,0,1-6.2,1.49h0c-1,0-2.46,0-4-.07-1.9,0-3.86-.09-5.13-.08a.66.66,0,0,0-.64.66.65.65,0,0,0,.65.64h0c1.25,0,3.2,0,5.09.08,1.54,0,3,.07,4,.07h0a18.94,18.94,0,0,0,5.06-1.06C61.83,28.8,62.24,28.47,62.63,28.12Z"/><path class="cls-2" d="M3.79,30.08a17,17,0,0,1,4.07,1.11,19.49,19.49,0,0,0,3.5,1,43,43,0,0,0,6.19.4h.12c3.47,0,7.4,0,10.63-1.68a.65.65,0,0,0-.59-1.15c-2.95,1.53-6.72,1.53-10,1.53h-.12a40.48,40.48,0,0,1-6-.39A17.93,17.93,0,0,1,8.3,30a14.88,14.88,0,0,0-5.05-1.2.65.65,0,0,0-.41.18v0a2.28,2.28,0,0,0,.15.44Z"/></g></g></g></svg>