<svg xmlns="http://www.w3.org/2000/svg" viewBox="0 0 160.04 114.74"><defs><style>.cls-1{fill:#333;}</style></defs><title>Notes</title><g id="Layer_2" data-name="Layer 2"><g id="Page_4" data-name="Page 4"><g id="music_notes_copy_3" data-name="music notes copy 3"><path class="cls-1" d="M122.3,82.47l-1.9-2.57a.86.86,0,0,0-1.58.43c-.26,2.43-.53,4.86-.92,7.27,0,.12,0,.24-.05.35a1.75,1.75,0,0,0-2.21.57,1.91,1.91,0,0,0,1.48,2.94,2.05,2.05,0,0,0,1.75-.86,4.42,4.42,0,0,0,.56-1.89c.23-1.33.41-2.66.58-4,.09-.71.18-1.43.26-2.14l.56.75a.87.87,0,0,0,1.16.31A.86.86,0,0,0,122.3,82.47Z"/><path class="cls-1" d="M147,93.53a.85.85,0,0,0-1.58.42c-.26,2.43-.52,4.86-.92,7.28,0,.11,0,.23-.05.35a1.74,1.74,0,0,0-2.21.57,1.9,1.9,0,0,0,1.48,2.93,2,2,0,0,0,1.75-.85,4.46,4.46,0,0,0,.56-1.89c.23-1.33.42-2.66.59-4,.09-.71.17-1.43.25-2.15l.56.76a.88.88,0,0,0,1.16.31.87.87,0,0,0,.31-1.17C148.24,95.24,147.61,94.38,147,93.53Z"/><path class="cls-1" d="M133.64,95.77l-5.79-.28a.86.86,0,0,0-.85.85c-.27,2-.55,4.07-1,6.08a2,2,0,0,0-2.05.33,1.69,1.69,0,0,0,.92,2.81,2.09,2.09,0,0,0,2.59-1.84c.26-1.12.46-2.26.63-3.41s.31-2,.45-3.09l4.1.2c-.24,1.75-.49,3.53-.84,5.28a2,2,0,0,0-2.06.33,1.69,1.69,0,0,0,.92,2.81,2.09,2.09,0,0,0,2.59-1.84c.26-1.12.46-2.27.64-3.41.2-1.32.38-2.65.56-4C134.55,96.15,134.05,95.79,133.64,95.77Zm-7.93,8Zm-.51.12Zm6.3.16Zm-.5.12Z"/><path class="cls-1" d="M159.19,104.63l-5.79-.28a.86.86,0,0,0-.85.85c-.27,2-.55,4.06-1,6.08a2,2,0,0,0-2.05.33,1.69,1.69,0,0,0,.92,2.81,2.36,2.36,0,0,0,1.7-.31,2.33,2.33,0,0,0,.89-1.53c.26-1.13.46-2.27.63-3.41s.31-2.06.45-3.09l4.1.2c-.24,1.75-.49,3.53-.84,5.27a2,2,0,0,0-2.06.34,1.68,1.68,0,0,0,.92,2.8,2.08,2.08,0,0,0,2.59-1.83c.26-1.13.46-2.27.64-3.41.2-1.32.38-2.65.56-4C160.1,105,159.6,104.65,159.19,104.63Zm-7.93,8Zm-.51.13Zm6.3.15Zm-.5.13h0Z"/><path class="cls-1" d="M70.27,39.29c-.79-1.07-1.57-2.14-2.36-3.2a1.07,1.07,0,0,0-2,.53c-.33,3-.65,6.06-1.14,9.06,0,.15,0,.29-.07.44a2.17,2.17,0,0,0-2.75.71,2.38,2.38,0,0,0,1.84,3.66A2.57,2.57,0,0,0,66,49.42a5.53,5.53,0,0,0,.7-2.36c.29-1.65.52-3.31.73-5,.11-.89.22-1.78.32-2.67l.69.94a1.09,1.09,0,0,0,1.45.38A1.06,1.06,0,0,0,70.27,39.29Z"/><path class="cls-1" d="M101,53.06a1.07,1.07,0,0,0-2,.54c-.33,3-.65,6-1.14,9.06,0,.14-.05.29-.07.44a2.17,2.17,0,0,0-2.75.7,2.38,2.38,0,0,0,1.84,3.66,2.59,2.59,0,0,0,2.19-1.06A5.66,5.66,0,0,0,99.8,64c.29-1.65.52-3.32.73-5,.11-.89.22-1.78.32-2.67l.69.94a1.09,1.09,0,0,0,1.45.38,1.07,1.07,0,0,0,.38-1.45C102.59,55.19,101.8,54.13,101,53.06Z"/><path class="cls-1" d="M84.4,55.86l-7.22-.35a1.08,1.08,0,0,0-1.05,1.06c-.34,2.5-.68,5.06-1.19,7.57a2.51,2.51,0,0,0-2.56.42,2.09,2.09,0,0,0,1.15,3.49,2.59,2.59,0,0,0,3.22-2.29c.33-1.4.57-2.82.79-4.24s.38-2.57.55-3.85l5.12.25c-.3,2.18-.61,4.39-1.06,6.57a2.49,2.49,0,0,0-2.55.42,2.09,2.09,0,0,0,1.14,3.49A2.61,2.61,0,0,0,84,66.11c.32-1.4.57-2.82.79-4.24.26-1.65.48-3.3.7-5C85.53,56.33,84.91,55.88,84.4,55.86Zm-9.88,10Zm-.63.15Zm7.84.2Zm-.62.15Z"/><path class="cls-1" d="M116.23,66.89,109,66.54A1.1,1.1,0,0,0,108,67.6c-.33,2.5-.67,5.07-1.18,7.57a2.53,2.53,0,0,0-2.56.42,2.09,2.09,0,0,0,1.15,3.49,2.85,2.85,0,0,0,2.11-.38,2.82,2.82,0,0,0,1.11-1.9c.33-1.4.57-2.83.79-4.25s.38-2.56.55-3.85L115,69c-.29,2.18-.61,4.4-1,6.57a2.49,2.49,0,0,0-2.55.42,2.09,2.09,0,0,0,1.14,3.49,2.61,2.61,0,0,0,3.23-2.28c.32-1.41.56-2.83.79-4.25q.38-2.48.69-5C117.36,67.36,116.74,66.91,116.23,66.89Zm-9.88,10Zm-.63.16h0Zm7.84.19Zm-.62.15Z"/><path class="cls-1" d="M9.05,3.85,6.59.52a1.11,1.11,0,0,0-2,.55c-.34,3.16-.68,6.31-1.19,9.44,0,.16-.05.31-.07.46a2.26,2.26,0,0,0-2.87.74,2.48,2.48,0,0,0,1.92,3.81A2.65,2.65,0,0,0,4.6,14.41,5.68,5.68,0,0,0,5.33,12c.3-1.72.54-3.45.76-5.18Q6.27,5.38,6.42,4l.73,1a1.13,1.13,0,0,0,1.5.4A1.1,1.1,0,0,0,9.05,3.85Z"/><path class="cls-1" d="M41.08,18.2a1.11,1.11,0,0,0-2,.56c-.35,3.15-.69,6.31-1.19,9.44,0,.15-.05.31-.08.46a2.26,2.26,0,0,0-2.86.73,2.48,2.48,0,0,0,1.92,3.82,2.68,2.68,0,0,0,2.27-1.11,5.86,5.86,0,0,0,.73-2.46c.3-1.72.54-3.45.76-5.19l.33-2.78.72,1a1.14,1.14,0,0,0,1.51.4,1.12,1.12,0,0,0,.4-1.51Z"/><path class="cls-1" d="M23.77,21.12l-7.52-.37a1.14,1.14,0,0,0-1.1,1.11c-.35,2.6-.7,5.28-1.23,7.89a2.63,2.63,0,0,0-2.67.43,2.18,2.18,0,0,0,1.19,3.64,3,3,0,0,0,2.21-.4,3,3,0,0,0,1.16-2c.33-1.46.59-2.94.82-4.42s.39-2.68.57-4l5.33.26c-.31,2.28-.64,4.58-1.1,6.85a2.62,2.62,0,0,0-2.66.43A2.18,2.18,0,0,0,20,34.18a2.71,2.71,0,0,0,3.36-2.38c.34-1.46.59-2.94.83-4.42.26-1.72.49-3.44.72-5.16C25,21.61,24.3,21.14,23.77,21.12ZM13.48,31.55Zm-.66.16h0Zm8.17.2Zm-.65.16Z"/><path class="cls-1" d="M56.93,32.61l-7.51-.36a1.13,1.13,0,0,0-1.11,1.1c-.34,2.61-.7,5.28-1.23,7.89a2.64,2.64,0,0,0-2.67.44,2.18,2.18,0,0,0,1.19,3.64A2.72,2.72,0,0,0,49,42.93c.33-1.46.59-2.94.82-4.42.21-1.33.39-2.67.57-4l5.33.26c-.31,2.27-.64,4.58-1.1,6.84a2.62,2.62,0,0,0-2.66.44,2.18,2.18,0,0,0,1.19,3.64,2.71,2.71,0,0,0,3.36-2.38c.34-1.46.6-2.94.83-4.43.27-1.71.5-3.43.72-5.16C58.12,33.1,57.46,32.64,56.93,32.61ZM46.64,43h0ZM46,43.2Zm8.17.21Zm-.66.16h0Z"/></g></g></g></svg>