<svg xmlns="http://www.w3.org/2000/svg" viewBox="0 0 1038.54 530"><defs><style>.cls-1{fill:#c1d4d9;}</style></defs><title>rain2</title><g id="Layer_2" data-name="Layer 2"><g id="Page_6" data-name="Page 6"><g id="raindrops_copy_5" data-name="raindrops copy 5"><path class="cls-1" d="M140.83,197.14a29.11,29.11,0,0,1-2,11.68c-1.4,3.58-4.15,8.41-3.05,12.53,1.54,5.73,10.16,6.29,13.2,1.38C154.45,213.83,144.16,203.21,140.83,197.14Z"/><path class="cls-1" d="M310.33,192.41a29.08,29.08,0,0,1-2,11.68c-1.4,3.59-4.15,8.42-3.05,12.54,1.54,5.72,10.16,6.29,13.2,1.37C324,209.11,313.66,198.48,310.33,192.41Z"/><path class="cls-1" d="M332.83,294.1a29.08,29.08,0,0,1-2,11.68c-1.4,3.59-4.15,8.42-3.05,12.54,1.54,5.72,10.16,6.29,13.2,1.37C346.45,310.8,336.16,300.17,332.83,294.1Z"/><path class="cls-1" d="M310.33,403.29a29.08,29.08,0,0,1-2,11.68c-1.4,3.59-4.15,8.42-3.05,12.54,1.54,5.72,10.16,6.29,13.2,1.37C324,420,313.66,409.36,310.33,403.29Z"/><path class="cls-1" d="M337.21,501.07a29.08,29.08,0,0,0,2,11.68c1.4,3.59,4.15,8.42,3.05,12.54-1.54,5.72-10.16,6.29-13.2,1.38C323.59,517.77,333.88,507.14,337.21,501.07Z"/><path class="cls-1" d="M83.08,261.51a29.11,29.11,0,0,1-2,11.68c-1.4,3.59-4.15,8.42-3,12.53,1.54,5.73,10.16,6.3,13.2,1.38C96.7,278.21,86.41,267.58,83.08,261.51Z"/><path class="cls-1" d="M172.33,299a29.08,29.08,0,0,1-2,11.68c-1.4,3.59-4.15,8.42-3.05,12.54,1.54,5.72,10.16,6.29,13.2,1.37C186,315.69,175.66,305.06,172.33,299Z"/><path class="cls-1" d="M253.21,245.21a29.08,29.08,0,0,0,2,11.68c1.4,3.59,4.15,8.42,3.05,12.54-1.54,5.72-10.16,6.29-13.2,1.37C239.59,261.91,249.88,251.28,253.21,245.21Z"/><path class="cls-1" d="M133.33,7.28a29.11,29.11,0,0,1-2,11.68c-1.4,3.58-4.15,8.42-3.05,12.53,1.54,5.73,10.16,6.29,13.2,1.38C147,24,136.66,13.35,133.33,7.28Z"/><path class="cls-1" d="M152.08,96.91a29.11,29.11,0,0,1-2,11.68c-1.4,3.59-4.15,8.42-3.05,12.53,1.54,5.73,10.16,6.3,13.2,1.38C165.7,113.61,155.41,103,152.08,96.91Z"/><path class="cls-1" d="M60.58,152.32a29.11,29.11,0,0,1-2,11.68c-1.4,3.59-4.15,8.42-3,12.53,1.54,5.73,10.16,6.3,13.2,1.38C74.2,169,63.91,158.39,60.58,152.32Z"/><path class="cls-1" d="M80,50.46a29,29,0,0,0,2,11.68c1.4,3.59,4.15,8.42,3.05,12.54C83.5,80.4,74.88,81,71.84,76.06,66.34,67.16,76.63,56.53,80,50.46Z"/><path class="cls-1" d="M228.58,136a29.08,29.08,0,0,1-2,11.68c-1.4,3.59-4.15,8.42-3.05,12.54,1.54,5.72,10.16,6.29,13.2,1.37C242.2,152.72,231.91,142.09,228.58,136Z"/><path class="cls-1" d="M317.83,89.74a29.08,29.08,0,0,1-2,11.68c-1.4,3.59-4.15,8.42-3.05,12.54,1.54,5.72,10.16,6.29,13.2,1.37C331.45,106.44,321.16,95.81,317.83,89.74Z"/><path class="cls-1" d="M335.08,5a29.11,29.11,0,0,1-2,11.68c-1.4,3.59-4.15,8.42-3.05,12.53,1.54,5.73,10.16,6.3,13.2,1.38C348.7,21.7,338.41,11.07,335.08,5Z"/><path class="cls-1" d="M5.33,187.41a29.08,29.08,0,0,1-2,11.68c-1.4,3.59-4.15,8.42-3,12.54,1.54,5.72,10.16,6.29,13.2,1.37C19,204.11,8.66,193.48,5.33,187.41Z"/><path class="cls-1" d="M27.83,289.1a29.08,29.08,0,0,1-2,11.68c-1.4,3.59-4.15,8.42-3.05,12.54,1.54,5.72,10.16,6.29,13.2,1.37C41.45,305.8,31.16,295.17,27.83,289.1Z"/><path class="cls-1" d="M5.33,398.29A29.08,29.08,0,0,1,3.3,410c-1.4,3.59-4.15,8.42-3,12.54,1.54,5.72,10.16,6.29,13.2,1.37C19,415,8.66,404.36,5.33,398.29Z"/><path class="cls-1" d="M32.21,496.07a29.08,29.08,0,0,0,2,11.68c1.4,3.59,4.15,8.42,3,12.54-1.54,5.72-10.16,6.29-13.2,1.38C18.59,512.77,28.88,502.14,32.21,496.07Z"/><path class="cls-1" d="M12.83,84.74a29.08,29.08,0,0,1-2,11.68C9.4,100,6.65,104.84,7.75,109c1.54,5.72,10.16,6.29,13.2,1.37C26.45,101.44,16.16,90.81,12.83,84.74Z"/><path class="cls-1" d="M30.08,0a29.11,29.11,0,0,1-2,11.68C26.65,15.27,23.9,20.1,25,24.21c1.54,5.73,10.16,6.3,13.2,1.38C43.7,16.7,33.41,6.07,30.08,0Z"/><path class="cls-1" d="M236.08,33.35a29.08,29.08,0,0,1-2,11.68c-1.4,3.59-4.15,8.42-3.05,12.54,1.54,5.72,10.16,6.29,13.2,1.37C249.7,50.05,239.41,39.42,236.08,33.35Z"/><path class="cls-1" d="M68.08,362.55a29.11,29.11,0,0,1-2,11.68c-1.4,3.59-4.15,8.42-3,12.53,1.54,5.73,10.16,6.3,13.2,1.38C81.7,379.25,71.41,368.62,68.08,362.55Z"/><path class="cls-1" d="M155.83,400a29.08,29.08,0,0,1-2,11.68c-1.4,3.59-4.15,8.42-3.05,12.54,1.54,5.72,10.16,6.29,13.2,1.37C169.45,416.73,159.16,406.1,155.83,400Z"/><path class="cls-1" d="M236.08,354.4a29.08,29.08,0,0,1-2,11.68c-1.4,3.59-4.15,8.42-3.05,12.54,1.54,5.72,10.16,6.29,13.2,1.37C249.7,371.1,239.41,360.47,236.08,354.4Z"/><path class="cls-1" d="M87.46,463.59a29.08,29.08,0,0,0,2,11.68c1.4,3.59,4.15,8.42,3.05,12.53-1.54,5.73-10.16,6.3-13.2,1.38C73.84,480.29,84.13,469.66,87.46,463.59Z"/><path class="cls-1" d="M155.83,501.07a29.08,29.08,0,0,1-2,11.68c-1.4,3.59-4.15,8.42-3.05,12.54,1.54,5.72,10.16,6.29,13.2,1.38C169.45,517.77,159.16,507.14,155.83,501.07Z"/><path class="cls-1" d="M243.58,463.59a29.08,29.08,0,0,1-2,11.68c-1.4,3.59-4.15,8.42-3.05,12.53,1.54,5.73,10.16,6.3,13.2,1.38C257.2,480.29,246.91,469.66,243.58,463.59Z"/><path class="cls-1" d="M413.71,258.25a29.11,29.11,0,0,0,2,11.68c1.4,3.59,4.15,8.42,3.05,12.53-1.54,5.73-10.16,6.3-13.2,1.38C400.09,275,410.38,264.32,413.71,258.25Z"/><path class="cls-1" d="M389.08,149.06a29.08,29.08,0,0,1-2,11.68c-1.4,3.59-4.15,8.42-3.05,12.53,1.54,5.73,10.16,6.3,13.2,1.38C402.7,165.76,392.41,155.13,389.08,149.06Z"/><path class="cls-1" d="M396.58,46.39a29.11,29.11,0,0,1-2,11.68c-1.4,3.59-4.15,8.42-3.05,12.53,1.54,5.73,10.16,6.3,13.2,1.38C410.2,63.09,399.91,52.46,396.58,46.39Z"/><path class="cls-1" d="M396.58,367.44a29.11,29.11,0,0,1-2,11.68c-1.4,3.59-4.15,8.42-3.05,12.53,1.54,5.73,10.16,6.3,13.2,1.38C410.2,384.14,399.91,373.51,396.58,367.44Z"/><path class="cls-1" d="M404.08,476.63a29.11,29.11,0,0,1-2,11.68c-1.4,3.58-4.15,8.42-3.05,12.53,1.54,5.73,10.16,6.3,13.2,1.38C417.7,493.33,407.41,482.7,404.08,476.63Z"/><path class="cls-1" d="M1033.21,186.41a29.08,29.08,0,0,0,2,11.68c1.4,3.59,4.15,8.42,3,12.54-1.54,5.72-10.16,6.29-13.2,1.37C1019.59,203.11,1029.88,192.48,1033.21,186.41Z"/><path class="cls-1" d="M1010.71,302.35a29.08,29.08,0,0,0,2,11.68c1.4,3.59,4.15,8.42,3,12.54-1.54,5.72-10.16,6.29-13.2,1.37C997.09,319.05,1007.38,308.42,1010.71,302.35Z"/><path class="cls-1" d="M1033.21,404a29.08,29.08,0,0,0,2,11.68c1.4,3.59,4.15,8.42,3,12.54-1.54,5.72-10.16,6.29-13.2,1.37C1019.59,420.74,1029.88,410.11,1033.21,404Z"/><path class="cls-1" d="M1013.83,494.32a29.08,29.08,0,0,1-2,11.68c-1.4,3.59-4.15,8.42-3,12.54,1.54,5.72,10.16,6.29,13.2,1.38C1027.45,511,1017.16,500.39,1013.83,494.32Z"/><path class="cls-1" d="M1033.21,90.49a29.08,29.08,0,0,0,2,11.68c1.4,3.59,4.15,8.42,3,12.54-1.54,5.72-10.16,6.29-13.2,1.37C1019.59,107.19,1029.88,96.56,1033.21,90.49Z"/><path class="cls-1" d="M1016,5.75a29.11,29.11,0,0,0,2,11.68c1.4,3.59,4.15,8.42,3,12.53-1.54,5.73-10.16,6.3-13.2,1.38C1002.34,22.45,1012.63,11.82,1016,5.75Z"/><path class="cls-1" d="M937.33,244a29.11,29.11,0,0,1-2,11.68c-1.4,3.59-4.15,8.42-3,12.53,1.54,5.73,10.16,6.3,13.2,1.38C951,260.7,940.66,250.07,937.33,244Z"/><path class="cls-1" d="M962,150.56a29.08,29.08,0,0,0,2,11.68c1.4,3.59,4.15,8.42,3,12.53-1.54,5.73-10.16,6.3-13.2,1.38C948.34,167.26,958.63,156.63,962,150.56Z"/><path class="cls-1" d="M954.46,54.64a29.11,29.11,0,0,0,2,11.68c1.4,3.59,4.15,8.42,3,12.53-1.54,5.73-10.16,6.3-13.2,1.38C940.84,71.34,951.13,60.71,954.46,54.64Z"/><path class="cls-1" d="M954.46,368.19a29.11,29.11,0,0,0,2,11.68c1.4,3.59,4.15,8.42,3,12.53-1.54,5.73-10.16,6.3-13.2,1.38C940.84,384.89,951.13,374.26,954.46,368.19Z"/><path class="cls-1" d="M947,469.88a29.11,29.11,0,0,0,2,11.68c1.4,3.58,4.15,8.42,3,12.53-1.54,5.73-10.16,6.3-13.2,1.38C933.34,486.58,943.63,476,947,469.88Z"/></g></g></g></svg>