<svg xmlns="http://www.w3.org/2000/svg" viewBox="0 0 983.29 525"><defs><style>.cls-1{fill:#c1d4d9;}</style></defs><title>Rain</title><g id="Layer_2" data-name="Layer 2"><g id="Page_7" data-name="Page 7"><g id="raindrops_copy_6" data-name="raindrops copy 6"><path class="cls-1" d="M85.58,192.14a29.11,29.11,0,0,1-2,11.68c-1.4,3.58-4.15,8.41-3,12.53,1.54,5.73,10.16,6.29,13.2,1.38C99.2,208.83,88.91,198.21,85.58,192.14Z"/><path class="cls-1" d="M255.08,187.41a29.08,29.08,0,0,1-2,11.68c-1.4,3.59-4.15,8.42-3.05,12.54,1.54,5.72,10.16,6.29,13.2,1.37C268.7,204.11,258.41,193.48,255.08,187.41Z"/><path class="cls-1" d="M277.58,289.1a29.08,29.08,0,0,1-2,11.68c-1.4,3.59-4.15,8.42-3.05,12.54,1.54,5.72,10.16,6.29,13.2,1.37C291.2,305.8,280.91,295.17,277.58,289.1Z"/><path class="cls-1" d="M255.08,398.29a29.08,29.08,0,0,1-2,11.68c-1.4,3.59-4.15,8.42-3.05,12.54,1.54,5.72,10.16,6.29,13.2,1.37C268.7,415,258.41,404.36,255.08,398.29Z"/><path class="cls-1" d="M282,496.07a29.08,29.08,0,0,0,2,11.68c1.4,3.59,4.15,8.42,3.05,12.54-1.54,5.72-10.16,6.29-13.2,1.38C268.34,512.77,278.63,502.14,282,496.07Z"/><path class="cls-1" d="M27.83,256.51a29.11,29.11,0,0,1-2,11.68c-1.4,3.59-4.15,8.42-3.05,12.53,1.54,5.73,10.16,6.3,13.2,1.38C41.45,273.21,31.16,262.58,27.83,256.51Z"/><path class="cls-1" d="M117.08,294a29.08,29.08,0,0,1-2,11.68c-1.4,3.59-4.15,8.42-3,12.54,1.54,5.72,10.16,6.29,13.2,1.37C130.7,310.69,120.41,300.06,117.08,294Z"/><path class="cls-1" d="M198,240.21a29.08,29.08,0,0,0,2,11.68c1.4,3.59,4.15,8.42,3,12.54-1.54,5.72-10.16,6.29-13.2,1.37C184.34,256.91,194.63,246.28,198,240.21Z"/><path class="cls-1" d="M78.08,2.28a29.11,29.11,0,0,1-2,11.68c-1.4,3.58-4.15,8.42-3,12.53,1.54,5.73,10.16,6.29,13.2,1.38C91.7,19,81.41,8.35,78.08,2.28Z"/><path class="cls-1" d="M96.83,91.91a29.11,29.11,0,0,1-2,11.68c-1.4,3.59-4.15,8.42-3,12.53,1.54,5.73,10.16,6.3,13.2,1.38C110.45,108.61,100.16,98,96.83,91.91Z"/><path class="cls-1" d="M5.33,147.32A29.11,29.11,0,0,1,3.3,159c-1.4,3.59-4.15,8.42-3,12.53,1.54,5.73,10.16,6.3,13.2,1.38C19,164,8.66,153.39,5.33,147.32Z"/><path class="cls-1" d="M24.71,45.46a29,29,0,0,0,2,11.68c1.4,3.59,4.15,8.42,3.05,12.54C28.25,75.4,19.63,76,16.59,71.06,11.09,62.16,21.38,51.53,24.71,45.46Z"/><path class="cls-1" d="M173.33,131a29.08,29.08,0,0,1-2,11.68c-1.4,3.59-4.15,8.42-3.05,12.54,1.54,5.72,10.16,6.29,13.2,1.37C187,147.72,176.66,137.09,173.33,131Z"/><path class="cls-1" d="M262.58,84.74a29.08,29.08,0,0,1-2,11.68c-1.4,3.59-4.15,8.42-3.05,12.54,1.54,5.72,10.16,6.29,13.2,1.37C276.2,101.44,265.91,90.81,262.58,84.74Z"/><path class="cls-1" d="M279.83,0a29.11,29.11,0,0,1-2,11.68c-1.4,3.59-4.15,8.42-3.05,12.53,1.54,5.73,10.16,6.3,13.2,1.38C293.45,16.7,283.16,6.07,279.83,0Z"/><path class="cls-1" d="M180.83,28.35a29.08,29.08,0,0,1-2,11.68c-1.4,3.59-4.15,8.42-3.05,12.54,1.54,5.72,10.16,6.29,13.2,1.37C194.45,45.05,184.16,34.42,180.83,28.35Z"/><path class="cls-1" d="M12.83,357.55a29.11,29.11,0,0,1-2,11.68c-1.4,3.59-4.15,8.42-3.05,12.53,1.54,5.73,10.16,6.3,13.2,1.38C26.45,374.25,16.16,363.62,12.83,357.55Z"/><path class="cls-1" d="M100.58,395a29.08,29.08,0,0,1-2,11.68c-1.4,3.59-4.15,8.42-3,12.54,1.54,5.72,10.16,6.29,13.2,1.37C114.2,411.73,103.91,401.1,100.58,395Z"/><path class="cls-1" d="M180.83,349.4a29.08,29.08,0,0,1-2,11.68c-1.4,3.59-4.15,8.42-3.05,12.54,1.54,5.72,10.16,6.29,13.2,1.37C194.45,366.1,184.16,355.47,180.83,349.4Z"/><path class="cls-1" d="M32.21,458.59a29.08,29.08,0,0,0,2,11.68c1.4,3.59,4.15,8.42,3,12.53-1.54,5.73-10.16,6.3-13.2,1.38C18.59,475.29,28.88,464.66,32.21,458.59Z"/><path class="cls-1" d="M100.58,496.07a29.08,29.08,0,0,1-2,11.68c-1.4,3.59-4.15,8.42-3,12.54,1.54,5.72,10.16,6.29,13.2,1.38C114.2,512.77,103.91,502.14,100.58,496.07Z"/><path class="cls-1" d="M188.33,458.59a29.08,29.08,0,0,1-2,11.68c-1.4,3.59-4.15,8.42-3.05,12.53,1.54,5.73,10.16,6.3,13.2,1.38C202,475.29,191.66,464.66,188.33,458.59Z"/><path class="cls-1" d="M358.46,253.25a29.11,29.11,0,0,0,2,11.68c1.4,3.59,4.15,8.42,3.05,12.53-1.54,5.73-10.16,6.3-13.2,1.38C344.84,270,355.13,259.32,358.46,253.25Z"/><path class="cls-1" d="M333.83,144.06a29.08,29.08,0,0,1-2,11.68c-1.4,3.59-4.15,8.42-3.05,12.53,1.54,5.73,10.16,6.3,13.2,1.38C347.45,160.76,337.16,150.13,333.83,144.06Z"/><path class="cls-1" d="M341.33,41.39a29.11,29.11,0,0,1-2,11.68c-1.4,3.59-4.15,8.42-3.05,12.53,1.54,5.73,10.16,6.3,13.2,1.38C355,58.09,344.66,47.46,341.33,41.39Z"/><path class="cls-1" d="M341.33,362.44a29.11,29.11,0,0,1-2,11.68c-1.4,3.59-4.15,8.42-3.05,12.53,1.54,5.73,10.16,6.3,13.2,1.38C355,379.14,344.66,368.51,341.33,362.44Z"/><path class="cls-1" d="M348.83,471.63a29.11,29.11,0,0,1-2,11.68c-1.4,3.58-4.15,8.42-3.05,12.53,1.54,5.73,10.16,6.3,13.2,1.38C362.45,488.33,352.16,477.7,348.83,471.63Z"/><path class="cls-1" d="M978,181.41a29.08,29.08,0,0,0,2,11.68c1.4,3.59,4.15,8.42,3,12.54-1.54,5.72-10.16,6.29-13.2,1.37C964.34,198.11,974.63,187.48,978,181.41Z"/><path class="cls-1" d="M955.46,297.35a29.08,29.08,0,0,0,2,11.68c1.4,3.59,4.15,8.42,3,12.54-1.54,5.72-10.16,6.29-13.2,1.37C941.84,314.05,952.13,303.42,955.46,297.35Z"/><path class="cls-1" d="M978,399a29.08,29.08,0,0,0,2,11.68c1.4,3.59,4.15,8.42,3,12.54-1.54,5.72-10.16,6.29-13.2,1.37C964.34,415.74,974.63,405.11,978,399Z"/><path class="cls-1" d="M958.58,489.32a29.08,29.08,0,0,1-2,11.68c-1.4,3.59-4.15,8.42-3,12.54,1.54,5.72,10.16,6.29,13.2,1.38C972.2,506,961.91,495.39,958.58,489.32Z"/><path class="cls-1" d="M978,85.49a29.08,29.08,0,0,0,2,11.68c1.4,3.59,4.15,8.42,3,12.54-1.54,5.72-10.16,6.29-13.2,1.37C964.34,102.19,974.63,91.56,978,85.49Z"/><path class="cls-1" d="M960.71.75a29.11,29.11,0,0,0,2,11.68c1.4,3.59,4.15,8.42,3,12.53-1.54,5.73-10.16,6.3-13.2,1.38C947.09,17.45,957.38,6.82,960.71.75Z"/><path class="cls-1" d="M882.08,239a29.11,29.11,0,0,1-2,11.68c-1.4,3.59-4.15,8.42-3,12.53,1.54,5.73,10.16,6.3,13.2,1.38C895.7,255.7,885.41,245.07,882.08,239Z"/><path class="cls-1" d="M906.71,145.56a29.08,29.08,0,0,0,2,11.68c1.4,3.59,4.15,8.42,3,12.53-1.54,5.73-10.16,6.3-13.2,1.38C893.09,162.26,903.38,151.63,906.71,145.56Z"/><path class="cls-1" d="M899.21,49.64a29.11,29.11,0,0,0,2,11.68c1.4,3.59,4.15,8.42,3,12.53-1.54,5.73-10.16,6.3-13.2,1.38C885.59,66.34,895.88,55.71,899.21,49.64Z"/><path class="cls-1" d="M899.21,363.19a29.11,29.11,0,0,0,2,11.68c1.4,3.59,4.15,8.42,3,12.53-1.54,5.73-10.16,6.3-13.2,1.38C885.59,379.89,895.88,369.26,899.21,363.19Z"/><path class="cls-1" d="M891.71,464.88a29.11,29.11,0,0,0,2,11.68c1.4,3.58,4.15,8.42,3,12.53-1.54,5.73-10.16,6.3-13.2,1.38C878.09,481.58,888.38,471,891.71,464.88Z"/></g></g></g></svg>