<svg xmlns="http://www.w3.org/2000/svg" viewBox="0 0 46.55 46.86"><defs><style>.cls-1{fill:#b3b3b3;}.cls-2{fill:gray;}.cls-3{fill:#666;}.cls-4{fill:#999;}</style></defs><title>Treebird</title><g id="Layer_2" data-name="Layer 2"><g id="Page_7" data-name="Page 7"><g id="bird_tree_copy_6" data-name="bird tree copy 6"><path class="cls-1" d="M3.17,33.59c.29-.79.92-1.22,1.1-1.91.26-1-.43-2.21-.28-3.2.39-2.64,2.37-5.06,3.4-7.36A19.27,19.27,0,0,1,11,15.66a18.44,18.44,0,0,1,3.72-3.41c1-.59,2.19-.8,2.91-1.61,1-1.11,2-2,2.93-3.06.67-.82,1.09-1.59,1.83-2.37a17.37,17.37,0,0,1,2.18-2.44A19.53,19.53,0,0,1,28,1a8.94,8.94,0,0,1,3.1-1,13.23,13.23,0,0,1,6.39,1.52C40,2.73,40.94,3.61,41.22,6.4A8.42,8.42,0,0,0,38.09,7c-1.15.39-3.53,1.07-4.9.73-1.19-.3-1.95-1.38-3.31-1.29-.69,0-1.15.53-1.79.69a14.93,14.93,0,0,1-2.31.22c-1.27.12-3.62-.07-4.26,1.16,1.37.11,2.31-.57,3.71-.21a14.66,14.66,0,0,1,2.82,1.22c1.42.71,4.38.24,5.82,2,.24.3.62.69.78.34.55-1.22,2.94-2.29,4.07-2.65.64-.2,1,1.66,1.1,1.81.19.35.15.85.37,1.22A3.31,3.31,0,0,1,40.55,15a14.17,14.17,0,0,0-.69,3.19,29.36,29.36,0,0,0,1.07,5.63c.46,2.28,0,4.1-.3,6.29a19.39,19.39,0,0,1-2.69,6.85,18.06,18.06,0,0,1-4.53,4.85c-.76.57-1.19,1.36-1.89,2A10.41,10.41,0,0,1,29.21,45C27.27,46,25.6,47,23.3,46.85c-7.77-.35-10.77-1.1-14.09-2.25-3.43-.35-6.32-4.8-8.12-6.35a.11.11,0,0,1,0-.14C1.34,37.62,2.61,35.07,3.17,33.59Z"/><path class="cls-2" d="M46.55,7.61a48,48,0,0,0-4.91-1.16c-1.46-.28-3.46.58-5.16,1a9,9,0,0,1-2.39.35,4.72,4.72,0,0,1-2.59-.91c-1.85-1.07-2.26-.11-3.55.26-1.57.46-5.46-.33-6.45,1.38.77.36,2-.07,2.92-.08a6.84,6.84,0,0,1,2.8.69,9.3,9.3,0,0,0,2.25.86c1.05.28,1.83.22,2.89.55a3.74,3.74,0,0,1,1.34.8c.26.28.33.88.88.59.16-.08.37-.53.51-.68a10.06,10.06,0,0,1,.94-.67,5,5,0,0,1,1.66-.89c.33-.13.91-.66,1.22-.34s.19.81.47,1.13A2.73,2.73,0,0,1,40,11.86c.11.36.68,3.25.69,1.59,0-.23.41-1.89.48-2.14a5.41,5.41,0,0,1,.46-1.46,2.58,2.58,0,0,1,1.72-.95c.76-.16,1.34-.43,2.1-.62.32-.09.66-.14,1-.21A2.14,2.14,0,0,0,46.55,7.61Z"/><path class="cls-3" d="M30.42,8a.61.61,0,1,0-1,.71c.41.58,1.54-.1,1-.71"/><path class="cls-4" d="M16.78,11.39c2.58.58,4,3.42,4.55,6.08A8.85,8.85,0,0,1,19.45,25c-3.22,4.12-7.32,8.28-11.87,10.84C6.58,36.43,1,39.1.05,37.58c-.23-.37.39-1.37.79-1.57,1.19-.58,1-2.13,1.74-3.2.54-.84.94-.86,1-1.93.07-.86-.26-1.73-.11-2.55.37-2.1,2-4.46,2.92-6.37a35.54,35.54,0,0,1,5.13-7.33C12.35,13.7,15.67,11.14,16.78,11.39Z"/><path class="cls-2" d="M4.4,31a1.64,1.64,0,0,1-.69-.09.15.15,0,0,1,.08-.28,1.6,1.6,0,0,0,1,0l.19,0a3,3,0,0,0,1.8-1.28c.66-.79,1.34-1.58,2-2.35.88-1,1.79-2.07,2.65-3.13a5.07,5.07,0,0,0,.49-.72q.15-.25.3-.48a1.57,1.57,0,0,0,.19-.49,1.35,1.35,0,0,1,.38-.74.14.14,0,0,1,.2,0,.15.15,0,0,1,0,.21,1.16,1.16,0,0,0-.28.59,2.13,2.13,0,0,1-.23.58c-.1.14-.19.3-.29.46a6.3,6.3,0,0,1-.51.76C10.77,25.05,9.86,26.1,9,27.12c-.67.77-1.35,1.56-2,2.35a3.34,3.34,0,0,1-2,1.38l-.2,0A3.52,3.52,0,0,1,4.4,31Z"/><path class="cls-2" d="M3.18,34.19a1.26,1.26,0,0,1-1-.27.14.14,0,0,1,0-.21.14.14,0,0,1,.2,0,1.12,1.12,0,0,0,1.06.15,3.52,3.52,0,0,0,1.48-.66l.75-.59a20,20,0,0,0,2.11-1.77c.79-.78,1.66-1.48,2.5-2.17A28.84,28.84,0,0,0,13,26.21a4.32,4.32,0,0,0,.71-1,2.92,2.92,0,0,1,.68-.84l.22-.21a.15.15,0,0,1,.2,0,.15.15,0,0,1,0,.21l-.22.21a2.63,2.63,0,0,0-.62.77,4.74,4.74,0,0,1-.76,1,29.51,29.51,0,0,1-2.79,2.47C9.63,29.56,8.76,30.26,8,31a19.8,19.8,0,0,1-2.13,1.79l-.75.59a4,4,0,0,1-1.58.72Z"/><path class="cls-2" d="M2.86,36.15A3.94,3.94,0,0,1,1.33,36a.16.16,0,0,1-.1-.19.14.14,0,0,1,.18-.09c1.61.47,2.66-.11,4.39-1.08l.27-.15a5.19,5.19,0,0,0,1-.89,5.33,5.33,0,0,1,1-.85l.55-.39a7.75,7.75,0,0,1,.66-.46,8.09,8.09,0,0,1,.76-.42,5.53,5.53,0,0,0,1.17-.71l.45-.36a10.41,10.41,0,0,0,.94-.82l.58-.56a20.88,20.88,0,0,0,1.47-1.52.14.14,0,0,1,.2,0,.16.16,0,0,1,0,.21,21.35,21.35,0,0,1-1.48,1.54c-.2.18-.39.37-.58.56s-.64.57-1,.83l-.45.37a7.1,7.1,0,0,1-1.23.75,7.58,7.58,0,0,0-.74.4c-.22.13-.43.29-.64.44s-.37.28-.57.41a6.39,6.39,0,0,0-.9.8,5.62,5.62,0,0,1-1.1,1l-.27.15A8.16,8.16,0,0,1,2.86,36.15Z"/></g></g></g></svg>