<svg xmlns="http://www.w3.org/2000/svg" viewBox="0 0 488.25 535.65"><defs><style>.cls-1{fill:#8c5230;}.cls-2{fill:#a68256;}.cls-3{fill:#557217;}</style></defs><title>Tree</title><g id="Layer_2" data-name="Layer 2"><g id="Page_7" data-name="Page 7"><g id="tree_and_grass_copy_6" data-name="tree and grass copy 6"><path class="cls-1" d="M342.28,478.59C335.65,462,311,410.51,308.69,399.35a209.84,209.84,0,0,1-4.1-45.67c.1.33.86-23.36.86-35.19,0-16.1,3-80.25,6.52-101.42,1.13-6.73,2-14,4.26-20.46,4.09-12,10.39-33.47,15.64-43.22-63-168-158.25,2.25-158.25,2.25,12.69,22.57,8.46,61.28,4.65,85.22-4.76,29.94-4.7,61.63-7.13,91.94-2.57,31.89-.71,64.66-8.69,95.89-6.72,26.34-17.62,47.91-33.33,69.86C119,512.75,105,531.43,87.78,535.65l286.8-3.82C358.62,516.73,350.2,498.42,342.28,478.59Z"/><path class="cls-2" d="M342.28,478.72c-6.63-16.62-31.27-68.07-33.59-79.24a209.78,209.78,0,0,1-4.1-45.67c.1.33.86-23.36.86-35.19,0-16.1,3-80.25,6.52-101.42,1.13-6.73,2-14,4.26-20.46,4.09-12,10.39-33.47,15.64-43.22-63-168-158.25,2.25-158.25,2.25,12.69,22.57,8.46,61.28,4.65,85.23-4.76,29.93-4.7,61.62-7.13,91.93-2.57,31.89-.71,64.66-8.69,95.89-6.72,26.34-17.62,47.91-33.33,69.86C119,512.88,105,530.81,87.78,535L374.58,532C358.62,516.86,350.2,498.55,342.28,478.72ZM275.61,316.45c-3.92,20.43-29.15,25.64-46,23.08a50.07,50.07,0,0,1-16.32-6.12c-4.56-2.58-11.47-9.88-13.35-14.91-2.62-7-2.25-15.8-1.89-23.06.37-7.41,1.49-14.88,1.85-22.29.47-9.65,2.94-21,11.26-27,8.15-5.89,18.36-6.78,28.05-6.78,4.41.93,11.25.85,16.73,3.86,8.6,4.7,15.11,14.27,18.51,23.22C281,283.57,278.91,299.31,275.61,316.45Z"/><path class="cls-3" d="M18.11.47c-9.43,15.91-22.7,38.34-16.53,58C7.9,78.56,32.2,86.77,44.08,79.85c-1.93,19.67,6.4,49.58,33,62.23,15.72,7.49,34.37,7.34,47.86-3.63,12.29,16.11,25.91,22.29,47,20.7,16.88-1.28,32.69-5.17,39.53-20.5,11.2,20.12,46.22,39.48,74.68,32.87,11.9-2.76,32.88-9.75,33.66-25.76,13.76,16.76,42,20.81,67.19,5.4,10.64-6.51,23.81-20.89,14.63-38.14,19.12,7.5,45.44-.07,52.61-22.28,3.22-10,4-21.22-3.66-31.72,16.06-1.5,27.53-6.75,33.94-22,5.42-13,6.08-29.78-5.45-37Z"/></g></g></g></svg>