<svg xmlns="http://www.w3.org/2000/svg" viewBox="0 0 931.56 285.78"><defs><style>.cls-1{fill:#f5f7f7;}</style></defs><title>Wind</title><g id="Layer_2" data-name="Layer 2"><g id="Page_7" data-name="Page 7"><g id="wind_copy_6" data-name="wind copy 6"><path class="cls-1" d="M278.37,0c-11.14,1.54-21.49,6.32-31.22,11.77s-19.34,11.56-29.3,16.87c-19.78,10.54-40.7,19.16-62.63,24.08A169.58,169.58,0,0,1,122.39,57C117.88,57.06,113,57,109,55a12.86,12.86,0,0,1-7.31-9.66,26.36,26.36,0,0,1,1.17-12.91,33.83,33.83,0,0,1,6.38-11.61,23.5,23.5,0,0,1,10.36-7.26,16.06,16.06,0,0,1,11.33.4A16.25,16.25,0,0,1,139,20.78a8,8,0,0,1,.91,2.1,13.73,13.73,0,0,1,.38,1.5c0,.07.09.59,0,.13,0,.31.06.63.08.95a10.09,10.09,0,0,1-1.28,5.46,11.26,11.26,0,0,1-3.93,4.17,7.81,7.81,0,0,1-2.42,1,7,7,0,0,1-2.92.21c.49,0-.16,0-.28-.07s-.5-.12-.74-.2l-.59-.2c.4.15-.07,0-.13-.07a11.85,11.85,0,0,1-1.33-.78,5.29,5.29,0,0,1-.84-.71,8.6,8.6,0,0,1-2.51-4.19,6,6,0,0,1,.35-4.16,3.06,3.06,0,0,0-1.08-4.1,3,3,0,0,0-4.1,1.07c-2.43,4.74-1.38,10.15,1.85,14.23a13.38,13.38,0,0,0,13.25,4.91c5.26-1,9.53-5.26,11.52-10.1A16.39,16.39,0,0,0,144,17.48c-4.91-8.33-15.75-12.45-25-10-10.45,2.8-17.83,12-21.43,21.81S94,51.88,103.25,58.62c4.47,3.27,10.27,4.18,15.68,4.33a124.62,124.62,0,0,0,17.48-1C161,59.2,184.62,51.39,206.92,40.88c11.14-5.26,21.89-11.24,32.45-17.56C249.59,17.2,260,10.87,271.5,7.6A62.62,62.62,0,0,1,280,5.83c1.61-.22,2.48-2.28,2.1-3.69A3.09,3.09,0,0,0,278.37,0Z"/><path class="cls-1" d="M247.2,274.21c-13.67-2.12-27.06,1.6-40.52,3.5a195.33,195.33,0,0,1-39.63,1.74A142.85,142.85,0,0,1,147,276.77a67.17,67.17,0,0,1-8.82-2.28,11.73,11.73,0,0,1-5.59-3.53c-2.91-3.88,1-9,4.3-11.23,4-2.76,9.32-3.71,13.78-1.62a12.43,12.43,0,0,1,3.35,2.24,9.43,9.43,0,0,1,1.11,1.21,8.63,8.63,0,0,1,.51.82c0,.09.4.87.23.42.11.29.17.58.26.87.16.55.08-.25,0,.37,0,.06-.09,1,0,.36a3.66,3.66,0,0,1-.24.86c.19-.45-.1.12-.17.22s-.11.17,0,0a6.17,6.17,0,0,1-.43.46,4.57,4.57,0,0,1-1.25.83,5.91,5.91,0,0,1-3.29.47,5.27,5.27,0,0,1-2.45-1.11c-.15-.14-.29-.29-.43-.44s-.26-.3-.1-.09c-.11-.16-.22-.32-.32-.49s-.19-.33-.27-.51c.25.53-.11-.45-.14-.58,0,.14,0,.57,0,0a4.34,4.34,0,0,1,0-.51q-.08.51,0,.18c.07-.53.23-.14,0-.1.18-.28.17-.29,0,0a2.73,2.73,0,0,1,.38-.38,3,3,0,1,0-4.24-4.25c-5.19,4.75-.23,12.36,5.3,13.9,6.07,1.68,14.29-2.26,13.56-9.41-.67-6.52-7.46-11.21-13.5-12.19a21,21,0,0,0-18.12,6.05c-4.89,5-7,12.9-1.7,18.42,2.33,2.43,5.57,3.85,8.72,4.87a87.2,87.2,0,0,0,10.71,2.52,172.87,172.87,0,0,0,46.27,2c8.63-.73,17.19-2,25.71-3.53,8.35-1.47,16.94-2.87,25.42-1.56a3.1,3.1,0,0,0,3.69-2.09c.39-1.43-.49-3.44-2.1-3.69Z"/><path class="cls-1" d="M928.56,132.75c-13.07-1.22-26.13,1.29-38.7,4.7s-24.86,7.41-37.49,10.47c-25.07,6.08-50.82,9.74-76.66,9.17A197.78,197.78,0,0,1,738,153c-4.93-1.07-10-2.49-14.06-5.63a14.44,14.44,0,0,1-5.51-12c.25-9.8,7.42-19.4,15.48-24.5a26.89,26.89,0,0,1,13.7-4.39,21,21,0,0,1,13.21,4.42,20.38,20.38,0,0,1,4.52,4.8,16.76,16.76,0,0,1,.86,1.48c.13.24.26.5.38.75,0,.07.3.71.16.36a14,14,0,0,1,.53,1.58c.06.21.11.42.16.63a7.31,7.31,0,0,0,.17.82,10.55,10.55,0,0,1-.69,5.62,11.82,11.82,0,0,1-3.93,4.75,18.12,18.12,0,0,1-2.62,1.46,13.6,13.6,0,0,1-3.21.83,9.68,9.68,0,0,1-5.57-1,9.81,9.81,0,0,1-5.1-8.54c0-.18,0-.37,0-.55,0-.85-.16.51,0-.31.09-.4.19-.8.32-1.2,0-.14.29-.68,0-.19.1-.21.21-.41.33-.62s.24-.4.38-.59c.52-.75-.37.4.25-.3a3.08,3.08,0,0,0,0-4.24,3,3,0,0,0-4.24,0c-7.29,8.22-.76,21.62,9.45,23.3a18.22,18.22,0,0,0,15.63-5.11,16.69,16.69,0,0,0,4.61-15.27c-2.2-11.2-14.4-19-25.32-18.92-11.92.1-22.5,7.36-29.15,16.88s-9.83,24-.47,33.1c4.15,4,9.72,6.25,15.22,7.68a151.13,151.13,0,0,0,20,3.46c27.92,3.39,56.27,1.17,83.79-4.2,13.68-2.66,27.15-6.2,40.5-10.17,13.17-3.91,26.52-8.07,40.34-8.66a75.5,75.5,0,0,1,10.31.25,3,3,0,0,0,3-3,3.06,3.06,0,0,0-3-3Z"/><path class="cls-1" d="M909.12,251.36c-13.92.39-26.37,7.27-39.17,12a177.76,177.76,0,0,1-40,10.08,130.61,130.61,0,0,1-20.92.87,39.65,39.65,0,0,1-8.72-1c-2.4-.63-4.62-1.65-5.72-4a9.12,9.12,0,0,1,0-6.51,17,17,0,0,1,3.78-6.33c3.48-3.7,8.5-5.74,13.29-4.24a11,11,0,0,1,3.36,1.71,7.81,7.81,0,0,1,2.23,2.5,4.2,4.2,0,0,1,.55,2.52,4.55,4.55,0,0,1-1.5,2.59,6.24,6.24,0,0,1-2.93,1.39,5.11,5.11,0,0,1-1.64-.08,3.13,3.13,0,0,1-1.3-.59c-.75-.49.29.32-.37-.29-.09-.08-.79-.88-.53-.53a4.32,4.32,0,0,1-.33-.5c-.1-.17-.19-.34-.28-.52.11.28.11.25,0-.09,0-.07-.22-1-.13-.3a4.63,4.63,0,0,1,0-.83c0,.65.06-.16.1-.28-.15.52.25-.39.35-.54a3,3,0,0,0-1.08-4.11,3.07,3.07,0,0,0-4.1,1.08,8.08,8.08,0,0,0,.07,8.75,10.23,10.23,0,0,0,8.37,4.85c6.93.22,13.18-6.7,10.83-13.57-2.14-6.24-9.37-10.08-15.75-9.67-7,.45-13.06,4.79-16.59,10.7-3.44,5.74-4.62,14,.76,19s13.94,4.86,20.8,4.95c16,.19,31.92-2.67,47.17-7.3,7.53-2.29,14.89-5,22.16-8,7-2.91,14.14-5.91,21.7-7.18a40.44,40.44,0,0,1,5.5-.5c3.85-.11,3.87-6.11,0-6Z"/><path class="cls-1" d="M161.41,160.94c-17.28,1.41-33.15,8.27-49.46,13.59a343.76,343.76,0,0,1-50.48,12.52A262.16,262.16,0,0,1,35,190c-4.4.27-8.81.47-13.22.43A34.35,34.35,0,0,1,10.51,189a8.29,8.29,0,0,1-3.7-2.44,9.8,9.8,0,0,1-.6-1.14c0-.18-.23-.94-.2-.77s0-.17,0-.2c0-.25,0-.49,0-.75s.11-1,0-.55a8.44,8.44,0,0,1,.21-.9,6,6,0,0,1,.68-1.74A18.89,18.89,0,0,1,8,178.76l.26-.36c-.26.34,0-.06.09-.11q.39-.48.81-.93c4.46-4.76,11.44-7.17,18.13-6.86a22.4,22.4,0,0,1,9.1,2.29,13.48,13.48,0,0,1,1.77,1.11c-.37-.28.13.13.24.23s.48.49.71.75c-.41-.48.06.13.16.28.37.57,0-.23.12.21,0,.16.17.88.13.46s0,0,0,0c0,.7.13-.4,0,0,0,.21-.35.84-.09.38-.08.15-.47.74-.37.62A10.07,10.07,0,0,1,37.77,178a11.21,11.21,0,0,1-4.45,1.68,11,11,0,0,1-4.9-.32,6,6,0,0,1-3.19-2c.3.39,0-.1-.11-.26.27.47.06.23,0,.05s-.17-.2,0-.06l0,.17c0-.28,0-.3,0,0s0,0,0-.06c0,.19-.35.43,0,0,.06-.06.34-.43,0,0a3.09,3.09,0,0,0,0-4.24,3,3,0,0,0-4.25,0c-2.94,3.46-1.64,7.6,1.77,10.15,3.58,2.68,8.39,3.15,12.67,2.29,3.94-.8,8.14-3.13,9.68-7,1.26-3.19-.21-6.62-2.69-8.75-6.13-5.26-15.69-6.06-23.28-4.33S4,171.79,1,179.15a11.08,11.08,0,0,0,.94,10.75c2.62,3.57,7,5.2,11.21,5.89a73.88,73.88,0,0,0,14.26.6q7.59-.24,15.15-.92a313.2,313.2,0,0,0,58-11.17c9-2.59,17.84-5.56,26.66-8.68s17.84-6.19,27.15-7.8q3.51-.6,7-.88a3.08,3.08,0,0,0,3-3,3,3,0,0,0-3-3Z"/></g></g></g></svg>