<svg xmlns="http://www.w3.org/2000/svg" viewBox="0 0 375.42 386.84"><defs><style>.cls-1{fill:#c1d4d9;}</style></defs><title>Zoomdrops</title><g id="Layer_2" data-name="Layer 2"><g id="zoom_" data-name="zoom?"><g id="raindrops_copy_9" data-name="raindrops copy 9"><path class="cls-1" d="M42.25,261c.09,19.45,1.82,32.91,8.81,50.81,6.09,15.6,18.06,36.63,13.27,54.53-6.67,24.91-44.2,27.38-57.42,6C-17,333.64,27.77,287.4,42.25,261Z"/><path class="cls-1" d="M333.17,154.65c-.1,19.44-1.83,32.9-8.82,50.81-6.09,15.6-18.05,36.62-13.26,54.53,6.66,24.91,44.19,27.38,57.42,6C392.44,227.29,347.64,181.05,333.17,154.65Z"/><path class="cls-1" d="M188.3,0a45.32,45.32,0,0,1-6.79,21c-13.23,21.39-50.76,18.92-57.42-6A37.77,37.77,0,0,1,123.41.06Z"/></g></g></g></svg>