<svg xmlns="http://www.w3.org/2000/svg" viewBox="0 0 237.32 182.73"><defs><style>.cls-1{fill:#333;}</style></defs><title>Zoomnotes</title><g id="Layer_2" data-name="Layer 2"><g id="zoom_" data-name="zoom?"><g id="music_notes_copy_2" data-name="music notes copy 2"><path class="cls-1" d="M78.56,67l-8-10.8A3.61,3.61,0,0,0,63.94,58c-1.11,10.21-2.21,20.44-3.86,30.58l-.24,1.49a7.33,7.33,0,0,0-9.29,2.39c-3.44,5,.27,12,6.22,12.35a8.65,8.65,0,0,0,7.38-3.6c1.63-2.26,1.89-5.29,2.36-8,1-5.58,1.74-11.19,2.45-16.81q.57-4.5,1.08-9l2.35,3.18a3.68,3.68,0,0,0,4.89,1.28C78.81,71,79.71,68.54,78.56,67Z"/><path class="cls-1" d="M182.36,93.5a3.61,3.61,0,0,0-6.66,1.8c-1.11,10.21-2.21,20.44-3.86,30.59-.08.49-.16,1-.23,1.49a7.32,7.32,0,0,0-9.29,2.38c-3.45,5,.26,12,6.21,12.35a8.67,8.67,0,0,0,7.38-3.59c1.63-2.26,1.89-5.3,2.36-8,1-5.57,1.74-11.19,2.45-16.8q.57-4.52,1.08-9l2.35,3.18a3.68,3.68,0,0,0,4.89,1.28c1.53-.89,2.43-3.32,1.28-4.88Z"/><path class="cls-1" d="M126.26,102.93l-24.36-1.17c-2.11-.11-3.33,1.73-3.57,3.57-1.13,8.45-2.29,17.11-4,25.57-2.87-1.11-6.53-.64-8.63,1.41-4.1,4-1.45,10.68,3.86,11.8a9.64,9.64,0,0,0,7.14-1.3c2.3-1.53,3.16-3.85,3.76-6.43,1.09-4.73,1.91-9.53,2.67-14.33.67-4.32,1.27-8.66,1.85-13l17.26.83c-1,7.38-2.06,14.85-3.55,22.19-2.87-1.1-6.53-.64-8.63,1.41-4.1,4-1.45,10.69,3.86,11.8a9.59,9.59,0,0,0,7.14-1.3c2.29-1.53,3.16-3.85,3.76-6.42,1.09-4.74,1.91-9.54,2.66-14.34.87-5.56,1.62-11.14,2.36-16.72C130.09,104.52,128,103,126.26,102.93ZM92.91,136.74h0l0,0h0l0,0Zm-2.12.51Zm26.47.66h0v0h0v0Zm-2.11.52h0Z"/><path class="cls-1" d="M233.72,140.18,209.36,139c-2.11-.1-3.33,1.73-3.57,3.57-1.12,8.46-2.29,17.11-4,25.57-2.88-1.1-6.54-.64-8.64,1.41-4.1,4-1.45,10.69,3.86,11.8a9.58,9.58,0,0,0,7.14-1.3c2.3-1.53,3.17-3.85,3.76-6.42,1.09-4.74,1.92-9.54,2.67-14.34.67-4.32,1.27-8.66,1.85-13l17.26.84c-1,7.37-2.06,14.85-3.55,22.18-2.87-1.1-6.53-.63-8.63,1.42-4.1,4-1.45,10.68,3.86,11.79a9.59,9.59,0,0,0,7.14-1.3c2.3-1.52,3.16-3.85,3.76-6.42,1.09-4.74,1.91-9.53,2.67-14.33.87-5.56,1.61-11.14,2.35-16.72C237.56,141.78,235.44,140.27,233.72,140.18ZM200.37,174h0v0h0l0,0Zm-2.12.52h0Zm26.48.65h0l0,0h0l0,0Zm-2.12.52Z"/><path class="cls-1" d="M53,1.47,22.69,0c-2.63-.13-4.15,2.16-4.45,4.45-1.4,10.53-2.85,21.31-5,31.85-3.58-1.38-8.14-.8-10.76,1.76-5.1,5-1.8,13.31,4.82,14.69a11.93,11.93,0,0,0,8.89-1.62c2.86-1.9,3.94-4.79,4.68-8,1.36-5.9,2.39-11.87,3.32-17.85.85-5.39,1.59-10.79,2.31-16.2l21.5,1c-1.23,9.18-2.56,18.5-4.42,27.64C40,36.39,35.45,37,32.84,39.53c-5.11,5-1.81,13.31,4.81,14.69a11.89,11.89,0,0,0,8.89-1.62c2.86-1.9,3.94-4.79,4.68-8,1.37-5.9,2.39-11.87,3.33-17.85,1.08-6.93,2-13.88,2.93-20.83C57.81,3.45,55.17,1.57,53,1.47ZM11.48,43.58h0v0h0v0Zm-2.63.64Zm33,.82h0l0,0h0l0,0Zm-2.64.65h0Z"/></g></g></g></svg>