<svg xmlns="http://www.w3.org/2000/svg" viewBox="0 0 595.41 578.57"><defs><style>.cls-1{fill:#8c5230;}.cls-2{fill:#a68256;}</style></defs><title>Zoomtree</title><g id="Layer_2" data-name="Layer 2"><g id="zoom_" data-name="zoom?"><g id="tree_and_grass_copy_2" data-name="tree and grass copy 2"><path class="cls-1" d="M35.94,76.94c-20,125.9-19.76,259.18-30,386.69C1.2,522.58,3.16,516.52.52,576c67.78-1.62,514.81,4.84,566.45,1.61.43,1.37,3.86-124.46,3.86-174.2C570.83,335.72,580.47,89,595.41,0"/><path class="cls-2" d="M43.41,0c-25,147-27.23,336.67-37.48,464.18C3,501.15,1.4,540,0,577.34c86.05.31,492.74,1.92,568.61.31-.1-9.31,0-16.82.23-25.66.42,1.37,2-98.26,2-148,0-67.72,9.64-314.95,24.58-404h-552m402,394.86C428.86,480.77,322.72,502.7,252,491.93c-23-3.5-47.62-13.83-68.63-25.73-19.17-10.85-48.25-41.56-56.15-62.72-11-29.43-9.46-66.47-7.94-97,1.54-31.17,6.25-62.6,7.77-93.78,2-40.59,12.39-88.16,47.35-113.42,34.28-24.77,77.23-28.53,118-28.53,18.57,3.94,47.34,3.6,70.4,16.23,36.18,19.8,63.53,60.05,77.83,97.67C468,256.54,459.21,322.78,445.36,394.86Z"/></g></g></g></svg>